<svg width="21" height="20" viewBox="0 0 21 20" fill="none" xmlns="http://www.w3.org/2000/svg">
<path d="M0.909399 0.557906C0.757877 0.709429 0.663177 0.955655 0.663175 1.18294L0.663176 18.8354C0.663176 19.0626 0.757878 19.3089 0.9094 19.4604C1.06092 19.6119 1.30715 19.7066 1.53443 19.7066L19.1868 19.7066C19.4141 19.7066 19.6604 19.6119 19.8119 19.4604C19.9634 19.3089 20.0581 19.0626 20.0581 18.8354L20.0581 16.9413C20.0581 16.714 19.9634 16.4678 19.8119 16.3163C19.6604 16.1648 19.4141 16.0701 19.1868 16.0701L4.29972 16.0701L4.29973 1.18294C4.29972 0.955654 4.20502 0.709429 4.0535 0.557906C3.88304 0.387444 3.65575 0.311681 3.42847 0.311683L1.53443 0.311682C1.30715 0.311683 1.06092 0.406383 0.909399 0.557906Z" fill="white"/>
</svg>
