<svg width="167" height="97" viewBox="0 0 167 97" fill="none" xmlns="http://www.w3.org/2000/svg">
<path d="M50.9531 67.7065C43.0869 67.7065 36.6875 74.106 36.6875 81.9722C36.6875 89.8384 43.0869 96.2378 50.9531 96.2378C58.8193 96.2378 65.2187 89.8384 65.2187 81.9722C65.2187 74.106 58.8193 67.7065 50.9531 67.7065ZM50.9531 89.7534C46.6627 89.7534 43.1719 86.2626 43.1719 81.9722C43.1719 77.6818 46.6627 74.1909 50.9531 74.1909C55.2435 74.1909 58.7344 77.6818 58.7344 81.9722C58.7344 86.2626 55.2435 89.7534 50.9531 89.7534Z" fill="#0502D3"/>
<path d="M148.251 0.841309H131.634C129.844 0.841309 128.392 2.29284 128.392 4.0835C128.392 5.87416 129.844 7.32568 131.634 7.32568H148.251C153.435 7.32568 157.81 10.8467 159.117 15.6224H131.634C129.844 15.6224 128.392 17.074 128.392 18.8646V48.0168C128.392 49.8074 129.844 51.2589 131.634 51.2589H159.517V78.7897H150.004C148.553 72.4515 142.872 67.7069 136.101 67.7069C129.329 67.7069 123.648 72.4512 122.198 78.7897H121.908V18.8932C121.908 17.1025 120.456 15.651 118.665 15.651H92.728C90.9373 15.651 89.4858 17.1025 89.4858 18.8932V44.9351H29.2891C27.4984 44.9351 26.0469 46.3866 26.0469 48.1772C26.0469 49.9679 27.4984 51.4194 29.2891 51.4194H89.4858V78.789H72.9506C71.16 78.789 69.7084 80.2405 69.7084 82.0312C69.7084 83.8219 71.16 85.2734 72.9506 85.2734H122.225C123.719 91.5522 129.371 96.2375 136.101 96.2375C142.83 96.2375 148.483 91.5522 149.977 85.2734H162.759C164.55 85.2734 166.001 83.8219 166.001 82.0312V18.592C166.001 8.80412 158.039 0.841309 148.251 0.841309ZM115.423 47.2334H113.374C111.583 47.2334 110.132 48.685 110.132 50.4756C110.132 52.2663 111.583 53.7178 113.374 53.7178H115.423V78.789H95.9702V22.1353H115.423V47.2334ZM136.1 89.7534C131.81 89.7534 128.319 86.2626 128.319 81.9722C128.319 77.6818 131.81 74.1909 136.1 74.1909C140.391 74.1909 143.882 77.6818 143.882 81.9722C143.882 86.2626 140.391 89.7534 136.1 89.7534ZM159.517 44.7742H134.876V22.1065H159.517V44.7742Z" fill="#0502D3"/>
<path d="M120.956 1.79029C120.353 1.18725 119.517 0.840332 118.664 0.840332C117.811 0.840332 116.975 1.18725 116.372 1.79029C115.769 2.39334 115.422 3.22982 115.422 4.08252C115.422 4.93521 115.769 5.7717 116.372 6.37475C116.975 6.97779 117.811 7.32471 118.664 7.32471C119.517 7.32471 120.353 6.97779 120.956 6.37475C121.559 5.7717 121.906 4.93521 121.906 4.08252C121.906 3.22982 121.559 2.39334 120.956 1.79029Z" fill="#0502D3"/>
<path d="M105.695 0.841309H17.7507C8.86252 0.841309 1.48038 7.40836 0.198422 15.945C0.0723008 16.291 0 16.6629 0 17.0522V82.0312C0 83.8219 1.45153 85.2734 3.24219 85.2734H27.6487C29.4394 85.2734 30.8909 83.8219 30.8909 82.0312C30.8909 80.2405 29.4394 78.7893 27.6487 78.7893H6.48438V38.4507H17.5078C19.2985 38.4507 20.75 36.9992 20.75 35.2085V17.0522C20.75 15.2616 19.2985 13.8101 17.5078 13.8101H7.55235C9.35436 9.98233 13.2469 7.32568 17.7503 7.32568H105.695C107.486 7.32568 108.938 5.87416 108.938 4.0835C108.938 2.29284 107.486 0.841309 105.695 0.841309ZM14.2656 20.2944V31.9663H6.48438V20.2944H14.2656Z" fill="#0502D3"/>
<path d="M19.8 45.884C19.197 45.281 18.3605 44.9341 17.5078 44.9341C16.6551 44.9341 15.8186 45.281 15.2156 45.884C14.6125 46.4871 14.2656 47.3236 14.2656 48.1763C14.2656 49.0322 14.6125 49.8654 15.2156 50.4685C15.8186 51.0748 16.6551 51.4185 17.5078 51.4185C18.3605 51.4185 19.197 51.0748 19.8 50.4685C20.4031 49.8654 20.75 49.029 20.75 48.1763C20.75 47.3236 20.4031 46.4871 19.8 45.884Z" fill="#0502D3"/>
<path d="M79.7578 13.8101H61.6016C59.8109 13.8101 58.3594 15.2616 58.3594 17.0522V35.2085C58.3594 36.9992 59.8109 38.4507 61.6016 38.4507H79.7578C81.5485 38.4507 83 36.9992 83 35.2085V17.0522C83 15.2616 81.5485 13.8101 79.7578 13.8101ZM76.5156 31.9663H64.8438V20.2944H76.5156V31.9663Z" fill="#0502D3"/>
<path d="M48.6328 13.8101H30.4766C28.6859 13.8101 27.2344 15.2616 27.2344 17.0522V35.2085C27.2344 36.9992 28.6859 38.4507 30.4766 38.4507H48.6328C50.4235 38.4507 51.875 36.9992 51.875 35.2085V17.0522C51.875 15.2616 50.4235 13.8101 48.6328 13.8101ZM45.3906 31.9663H33.7188V20.2944H45.3906V31.9663Z" fill="#0502D3"/>
</svg>
