<svg width="13" height="13" viewBox="0 0 13 13" fill="none" xmlns="http://www.w3.org/2000/svg">
<g clip-path="url(#clip0)">
<path d="M9.37249 5.52679C9.62136 5.52679 9.8231 5.31442 9.8231 5.05246C9.8231 4.79049 9.62136 4.57812 9.37249 4.57812C9.12362 4.57812 8.92188 4.79049 8.92188 5.05246C8.92188 5.31442 9.12362 5.52679 9.37249 5.52679Z" fill="#0502D3"/>
<path d="M10.409 1.02093H9.82324V0.546596C9.82324 0.284623 9.6215 0.0722656 9.37263 0.0722656C9.12375 0.0722656 8.92201 0.284623 8.92201 0.546596V1.02093H6.87172V0.546596C6.87172 0.284623 6.66998 0.0722656 6.42111 0.0722656C6.17223 0.0722656 5.97049 0.284623 5.97049 0.546596V1.02093H3.94273V0.546596C3.94273 0.284623 3.74099 0.0722656 3.49212 0.0722656C3.24324 0.0722656 3.0415 0.284623 3.0415 0.546596V1.02093H2.47824C1.48436 1.02093 0.675781 1.87206 0.675781 2.91825V10.3178C0.675781 11.364 1.48436 12.2151 2.47824 12.2151H5.92543C6.17431 12.2151 6.37605 12.0028 6.37605 11.7408C6.37605 11.4788 6.17431 11.2665 5.92543 11.2665H2.47824C1.9813 11.2665 1.57701 10.8409 1.57701 10.3178V2.91825C1.57701 2.39516 1.9813 1.96959 2.47824 1.96959H3.0415V2.44392C3.0415 2.70589 3.24324 2.91825 3.49212 2.91825C3.74099 2.91825 3.94273 2.70589 3.94273 2.44392V1.96959H5.97049V2.44392C5.97049 2.70589 6.17223 2.91825 6.42111 2.91825C6.66998 2.91825 6.87172 2.70589 6.87172 2.44392V1.96959H8.92201V2.44392C8.92201 2.70589 9.12375 2.91825 9.37263 2.91825C9.6215 2.91825 9.82324 2.70589 9.82324 2.44392V1.96959H10.409C10.906 1.96959 11.3103 2.39516 11.3103 2.91825V5.62193C11.3103 5.8839 11.512 6.09626 11.7609 6.09626C12.0098 6.09626 12.2115 5.8839 12.2115 5.62193V2.91825C12.2115 1.87206 11.4029 1.02093 10.409 1.02093Z" fill="#0502D3"/>
<path d="M9.48403 6.47559C7.98078 6.47559 6.75781 7.76292 6.75781 9.34528C6.75781 10.9277 7.98078 12.215 9.48403 12.215C10.9873 12.215 12.2102 10.9277 12.2102 9.34528C12.2102 7.76292 10.9873 6.47559 9.48403 6.47559ZM9.48403 11.2663C8.47774 11.2663 7.65904 10.4046 7.65904 9.34528C7.65904 8.28601 8.47774 7.42425 9.48403 7.42425C10.4903 7.42425 11.309 8.28601 11.309 9.34528C11.309 10.4046 10.4903 11.2663 9.48403 11.2663Z" fill="#0502D3"/>
<path d="M10.1392 8.87081H9.93638V8.37277C9.93638 8.1108 9.73464 7.89844 9.48577 7.89844C9.2369 7.89844 9.03516 8.1108 9.03516 8.37277V9.34515C9.03516 9.60712 9.2369 9.81948 9.48577 9.81948H10.1392C10.388 9.81948 10.5898 9.60712 10.5898 9.34515C10.5898 9.08317 10.388 8.87081 10.1392 8.87081Z" fill="#0502D3"/>
<path d="M7.41155 5.52679C7.66042 5.52679 7.86217 5.31442 7.86217 5.05246C7.86217 4.79049 7.66042 4.57812 7.41155 4.57812C7.16268 4.57812 6.96094 4.79049 6.96094 5.05246C6.96094 5.31442 7.16268 5.52679 7.41155 5.52679Z" fill="#0502D3"/>
<path d="M5.45061 7.59026C5.69948 7.59026 5.90123 7.3779 5.90123 7.11593C5.90123 6.85397 5.69948 6.6416 5.45061 6.6416C5.20175 6.6416 5 6.85397 5 7.11593C5 7.3779 5.20175 7.59026 5.45061 7.59026Z" fill="#0502D3"/>
<path d="M3.49358 5.52679C3.74245 5.52679 3.9442 5.31442 3.9442 5.05246C3.9442 4.79049 3.74245 4.57812 3.49358 4.57812C3.24472 4.57812 3.04297 4.79049 3.04297 5.05246C3.04297 5.31442 3.24472 5.52679 3.49358 5.52679Z" fill="#0502D3"/>
<path d="M3.49358 7.59026C3.74245 7.59026 3.9442 7.3779 3.9442 7.11593C3.9442 6.85397 3.74245 6.6416 3.49358 6.6416C3.24472 6.6416 3.04297 6.85397 3.04297 7.11593C3.04297 7.3779 3.24472 7.59026 3.49358 7.59026Z" fill="#0502D3"/>
<path d="M3.49358 9.65374C3.74245 9.65374 3.9442 9.44137 3.9442 9.17941C3.9442 8.91744 3.74245 8.70508 3.49358 8.70508C3.24472 8.70508 3.04297 8.91744 3.04297 9.17941C3.04297 9.44137 3.24472 9.65374 3.49358 9.65374Z" fill="#0502D3"/>
<path d="M5.45061 9.65374C5.69948 9.65374 5.90123 9.44137 5.90123 9.17941C5.90123 8.91744 5.69948 8.70508 5.45061 8.70508C5.20175 8.70508 5 8.91744 5 9.17941C5 9.44137 5.20175 9.65374 5.45061 9.65374Z" fill="#0502D3"/>
<path d="M5.45061 5.52679C5.69948 5.52679 5.90123 5.31442 5.90123 5.05246C5.90123 4.79049 5.69948 4.57812 5.45061 4.57812C5.20175 4.57812 5 4.79049 5 5.05246C5 5.31442 5.20175 5.52679 5.45061 5.52679Z" fill="#0502D3"/>
</g>
<defs>
<clipPath id="clip0">
<rect width="11.5357" height="12.1429" fill="white" transform="translate(0.679688 0.0712891)"/>
</clipPath>
</defs>
</svg>
