<svg width="162" height="114" viewBox="0 0 162 114" fill="none" xmlns="http://www.w3.org/2000/svg">
<path d="M150.783 97.3311H133.684V101.569H150.783V97.3311Z" fill="#0502D3"/>
<path d="M105.705 97.3311H46.0703V101.569H105.705V97.3311Z" fill="#0502D3"/>
<path d="M119.834 114C111.638 114 104.996 107.36 104.996 99.1672C104.996 90.9739 111.638 84.3345 119.834 84.3345C128.03 84.3345 134.672 90.9739 134.672 99.1672C134.672 107.36 128.03 114 119.834 114ZM119.834 88.4311C113.899 88.4311 109.236 93.2341 109.236 99.0259C109.236 104.959 114.04 109.621 119.834 109.621C125.769 109.621 130.433 104.818 130.433 99.0259C130.433 93.2341 125.628 88.4311 119.834 88.4311Z" fill="#0502D3"/>
<path d="M33.3497 114C25.1535 114 18.5117 107.36 18.5117 99.1672C18.5117 90.9739 25.1535 84.3345 33.3497 84.3345C41.546 84.3345 48.1878 90.9739 48.1878 99.1672C48.1878 107.36 41.546 114 33.3497 114ZM33.3497 88.4311C27.4145 88.4311 22.7512 93.2341 22.7512 99.0259C22.7512 104.959 27.5558 109.621 33.3497 109.621C39.1436 109.621 43.9483 104.818 43.9483 99.0259C44.0896 93.2341 39.2849 88.4311 33.3497 88.4311Z" fill="#0502D3"/>
<path d="M119.835 105.948C115.878 105.948 112.77 102.84 112.77 98.885C112.77 94.9296 115.878 91.8218 119.835 91.8218C123.792 91.8218 126.901 94.9296 126.901 98.885C126.901 102.699 123.651 105.948 119.835 105.948ZM119.835 96.0597C118.281 96.0597 117.009 97.3311 117.009 98.885C117.009 100.439 118.281 101.71 119.835 101.71C121.39 101.71 122.662 100.439 122.662 98.885C122.662 97.3311 121.39 96.0597 119.835 96.0597Z" fill="#0502D3"/>
<path d="M33.3509 105.948C29.3941 105.948 26.2852 102.84 26.2852 98.885C26.2852 94.9296 29.3941 91.8218 33.3509 91.8218C37.3077 91.8218 40.4166 94.9296 40.4166 98.885C40.4166 102.699 37.3077 105.948 33.3509 105.948ZM33.3509 96.0597C31.7964 96.0597 30.5246 97.3311 30.5246 98.885C30.5246 100.439 31.7964 101.71 33.3509 101.71C34.9053 101.71 36.1772 100.439 36.1772 98.885C36.1772 97.3311 34.9053 96.0597 33.3509 96.0597Z" fill="#0502D3"/>
<path d="M18.2277 21.7544H13.9883V13.7024C13.9883 12.0072 15.4014 10.7358 16.9559 10.7358H46.0667V14.9738H18.2277V21.7544Z" fill="#0502D3"/>
<path d="M18.2277 26.8403H13.9883V33.4797H18.2277V26.8403Z" fill="#0502D3"/>
<path d="M116.02 65.6875H106.41V69.9254H116.02V65.6875Z" fill="#0502D3"/>
<path d="M20.6319 101.286H7.34835C3.25023 101.286 0 98.0371 0 93.9405C0 89.8438 3.25023 86.5947 7.34835 86.5947H16.9577V90.8327H7.34835C5.65258 90.8327 4.23943 92.2453 4.23943 93.9405C4.23943 95.6356 5.65258 97.0483 7.34835 97.0483H20.6319V101.286Z" fill="#0502D3"/>
<path d="M155.586 86.1709H134.672V90.4088H155.586V86.1709Z" fill="#0502D3"/>
<path d="M155.447 83.4872H147.534C143.718 83.4872 140.609 80.0968 140.609 76.0002C140.609 71.9035 143.718 68.5132 147.534 68.5132H149.936V72.7511H147.534C146.121 72.7511 144.849 74.1637 144.849 76.0002C144.849 77.8366 145.979 79.2492 147.534 79.2492H155.447V83.4872Z" fill="#0502D3"/>
<path d="M152.479 101.569H147.25V97.331H152.479C155.164 97.331 157.425 95.0708 157.425 92.3868V90.4091H153.186V79.673L139.054 49.5838C137.782 46.0522 134.108 36.305 132.554 33.621C130.01 29.2418 124.499 27.4054 120.259 27.4054H102.878V90.4091H50.3086V86.1712H98.7795V23.1675H120.401C125.771 23.1675 132.836 25.7102 136.369 31.5021C138.489 35.0336 142.728 46.7586 143.152 48.0299L157.566 78.6842V86.1712H157.99C160.11 86.1712 161.806 87.8664 161.806 89.9853V92.5281C161.664 97.4723 157.566 101.569 152.479 101.569Z" fill="#0502D3"/>
<path d="M134.674 59.1896H116.021C111.075 59.1896 106.977 55.0929 106.977 50.1487V33.9033H126.761L134.816 51.7026L134.674 59.1896ZM111.216 38.1412V50.1487C111.216 52.8327 113.336 54.9516 116.021 54.9516H130.576V52.5502L124.076 38.1412H111.216Z" fill="#0502D3"/>
<path d="M102.876 12.7139H98.6367V25.2864H102.876V12.7139Z" fill="#0502D3"/>
<path d="M92.2772 81.6505H88.0378V8.33457C88.0378 6.07435 86.2007 4.23792 83.9397 4.23792H12.5758C10.3148 4.23792 8.47772 6.07435 8.47772 8.33457V81.6505H4.23828V8.33457C4.23828 3.81413 8.05377 0 12.5758 0H83.9397C88.603 0 92.2772 3.81413 92.2772 8.33457V81.6505Z" fill="#0502D3"/>
</svg>
