<svg width="163" height="73" viewBox="0 0 163 73" fill="none" xmlns="http://www.w3.org/2000/svg">
<path d="M38.1132 72.6685C28.8029 72.6685 21.2383 65.0959 21.2383 55.7757C21.2383 46.4555 28.8029 38.8828 38.1132 38.8828C47.4235 38.8828 54.9881 46.4555 54.9881 55.7757C54.9881 65.0959 47.4235 72.6685 38.1132 72.6685ZM38.1132 43.3973C31.2759 43.3973 25.6025 48.9312 25.6025 55.9213C25.6025 62.9115 31.1305 68.4453 38.1132 68.4453C44.9504 68.4453 50.6239 62.9115 50.6239 55.9213C50.6239 48.9312 44.9504 43.3973 38.1132 43.3973Z" fill="#0502D3"/>
<path d="M38.1124 63.2032C33.8937 63.2032 30.4023 59.7081 30.4023 55.4849C30.4023 51.2617 33.8937 47.7666 38.1124 47.7666C42.3312 47.7666 45.8225 51.2617 45.8225 55.4849C45.8225 59.8537 42.3312 63.2032 38.1124 63.2032ZM38.1124 52.2811C36.3667 52.2811 34.7665 53.7374 34.7665 55.6305C34.7665 57.3781 36.2213 58.98 38.1124 58.98C39.8581 58.98 41.4583 57.5237 41.4583 55.6305C41.4583 53.7374 39.8581 52.2811 38.1124 52.2811Z" fill="#0502D3"/>
<path d="M126.851 72.6685C117.541 72.6685 109.977 65.0959 109.977 55.7757C109.977 46.4555 117.541 38.8828 126.851 38.8828C136.162 38.8828 143.726 46.6011 143.726 55.9213C143.726 65.2415 136.162 72.6685 126.851 72.6685ZM126.851 43.3973C120.014 43.3973 114.341 48.9312 114.341 55.9213C114.341 62.9115 119.869 68.4453 126.851 68.4453C133.834 68.4453 139.362 62.9115 139.362 55.9213C139.362 48.9312 133.834 43.3973 126.851 43.3973Z" fill="#0502D3"/>
<path d="M126.851 63.2032C122.632 63.2032 119.141 59.7081 119.141 55.4849C119.141 51.2617 122.632 47.7666 126.851 47.7666C131.069 47.7666 134.561 51.2617 134.561 55.4849C134.561 59.8537 131.069 63.2032 126.851 63.2032ZM126.851 52.2811C125.105 52.2811 123.505 53.7374 123.505 55.6305C123.505 57.3781 124.96 58.98 126.851 58.98C128.596 58.98 130.197 57.5237 130.197 55.6305C130.197 53.7374 128.742 52.2811 126.851 52.2811Z" fill="#0502D3"/>
<path d="M161.621 57.96H147.51V53.5912H157.838L158.566 48.3486C159.002 44.1253 156.093 42.2322 156.093 42.2322L155.511 41.9409L155.074 41.0672C152.601 35.5333 146.782 28.8344 139.945 27.2325L109.541 19.2229L89.6115 9.46583C83.938 6.26201 74.3368 4.36885 63.8628 4.36885H45.0967C38.8414 4.36885 29.6765 10.7765 24.294 17.0385C22.2574 19.3685 19.9298 21.4073 17.3113 22.8636L8.1465 27.9606C5.81893 29.4169 4.3642 32.0382 4.3642 34.8051V44.5622C4.3642 49.2223 11.056 53.5912 16.293 53.5912V57.96H13.529V57.6688C6.83724 56.5037 0 51.1155 0 44.5622V34.8051C0 30.4363 2.32757 26.3587 6.10988 24.3199L15.2747 19.2229C17.4568 18.0579 19.3479 16.3104 20.9481 14.4172C27.058 7.13578 37.2411 0 45.0967 0H63.8628C69.2453 0 82.7743 0.582513 91.6481 5.6795L111.287 15.291L141.109 23.1549C149.11 25.048 155.802 32.4751 159.002 39.0284C160.312 40.1934 163.512 43.3972 162.93 48.9311L161.621 57.96Z" fill="#0502D3"/>
<path d="M62.6992 26.0671H61.2445V21.6982H62.6992V26.0671ZM55.4255 26.0671H49.6066V21.6982H55.4255V26.0671ZM43.7877 26.0671H37.9688V21.6982H43.7877V26.0671Z" fill="#0502D3"/>
<path d="M101.397 26.0673H62.7009V21.6985H94.4141L84.6674 16.8927C80.0122 14.2714 72.3021 12.8151 64.0102 12.8151H49.7538C45.3896 12.8151 38.9888 16.8927 34.77 21.4072L35.061 21.6985H37.9704V26.0673H33.3153L28.6602 21.6985L29.9694 20.0965C34.9155 14.2714 43.2075 8.44629 49.7538 8.44629H64.0102C68.3743 8.44629 79.2848 8.88317 86.5585 13.1064L103.433 21.4072L101.397 26.0673Z" fill="#0502D3"/>
<path d="M105.323 53.5908H59.6445V57.9597H105.323V53.5908Z" fill="#0502D3"/>
<path d="M156.528 42.3778L145.327 39.9021C142.708 39.3196 140.381 37.7177 138.781 35.5333L136.453 32.0382L140.09 29.5625L142.563 33.0576C143.436 34.3682 144.891 35.3876 146.491 35.6789L157.692 38.1546L156.528 42.3778Z" fill="#0502D3"/>
</svg>
