<svg width="45" height="43" viewBox="0 0 45 43" fill="none" xmlns="http://www.w3.org/2000/svg">
<path d="M10.1239 19.3142H24.7677V6.74878H10.1239V19.3142ZM12.3427 9.0757H22.549V16.9872H12.3427V9.0757Z" fill="#424242"/>
<path d="M44.2927 29.0865V14.1942L37.8583 0L35.8614 0.930768L38.7458 7.21345V15.3577L42.0739 18.6154V29.3192C42.0739 30.0173 42.0739 32.3442 40.9646 33.5077C40.7427 33.973 40.2989 33.973 39.6333 33.973C38.9677 33.973 38.3021 33.7403 38.0802 33.5077C37.1927 32.5769 37.1927 30.25 37.1927 28.1557C37.1927 26.9923 37.1927 25.8288 37.1927 24.898C36.9708 22.3384 34.752 20.4769 32.3114 20.4769H31.202V7.67884C31.202 3.72307 28.0958 0.465384 24.3239 0.465384H10.5676C6.79568 0.465384 3.68942 3.72307 3.68942 7.67884V40.4884H0.139404V42.8153H34.9739V40.4884H31.202V22.5711H32.5333C33.8645 22.5711 34.9739 23.5019 35.1958 24.898C35.1958 25.8288 35.1958 26.7596 35.1958 27.923C35.1958 30.4827 35.1958 33.275 36.7489 34.9038C37.6364 35.8346 38.5239 36.0673 39.8552 36.0673C40.9646 36.0673 41.8521 35.6019 42.7396 34.9038C44.5146 33.0423 44.5146 29.5519 44.2927 29.0865ZM5.90818 7.67884C5.90818 4.88653 7.90506 2.7923 10.5676 2.7923H24.3239C26.9864 2.7923 28.9833 4.88653 28.9833 7.67884V40.2557H5.90818V7.67884Z" fill="#424242"/>
</svg>
