<svg width="88" height="89" viewBox="0 0 88 89" fill="none" xmlns="http://www.w3.org/2000/svg">
<path d="M79.5085 88.9892H8.45461C4.40723 88.9892 0.80957 85.3915 0.80957 81.3442V43.119C0.80957 41.3202 1.70899 39.0716 3.05811 37.7225L38.585 2.19556C41.733 -0.952396 46.2301 -0.502688 49.378 2.19556L84.905 37.7225C86.2541 39.0716 87.1535 40.8704 87.1535 43.119V81.7939C86.7038 85.8412 83.5558 88.9892 79.5085 88.9892ZM43.9815 4.4441C43.0821 4.4441 42.6324 4.89381 41.733 5.34352L6.20607 40.8704C5.75636 41.3202 5.30665 42.2196 5.30665 43.119V81.7939C5.30665 83.5927 6.65577 84.9418 8.45461 84.9418H79.5085C81.3073 84.9418 82.6564 83.5927 82.6564 81.7939V43.119C82.6564 42.2196 82.2067 41.3202 81.757 40.8704L46.2301 5.34352C45.3307 4.89381 44.881 4.4441 43.9815 4.4441Z" fill="#424242"/>
<path d="M55.6744 88.09H32.2896C30.9404 88.09 30.041 87.1906 30.041 85.8415V59.3087C30.041 57.9596 30.9404 57.0602 32.2896 57.0602H55.6744C57.0235 57.0602 57.9229 57.9596 57.9229 59.3087V85.8415C57.9229 87.1906 56.5738 88.09 55.6744 88.09ZM34.5381 83.593H53.4258V61.5573H34.5381V83.593Z" fill="#424242"/>
</svg>
