<svg xmlns="http://www.w3.org/2000/svg" viewBox="0 0 29.74 35.84"><defs><style>.cls-1{fill:#0502d3;}</style></defs><g id="Capa_2" data-name="Capa 2"><g id="Capa_1-2" data-name="Capa 1"><path class="cls-1" d="M25.85,31.34,17.08,1.27A1.78,1.78,0,0,0,15.38,0H14.21a1.78,1.78,0,0,0-1.7,1.27L3.73,31.34H2.23a2.25,2.25,0,0,0,0,4.5H27.51a2.25,2.25,0,0,0,0-4.5ZM13.93,1.7a.29.29,0,0,1,.28-.2h1.17a.3.3,0,0,1,.28.19l.78,2.67H13.16ZM12.71,5.86h4.16l1.31,4.5H11.4Zm-1.74,6h7.65l1.75,6H9.22ZM8.78,19.35h12l1.74,6H7ZM6.59,26.84H23l1.31,4.5h-19Zm20.92,7.5H2.23a.75.75,0,0,1,0-1.5H27.51a.75.75,0,0,1,0,1.5Z"/></g></g></svg>