<svg width="58" height="25" viewBox="0 0 58 25" fill="none" xmlns="http://www.w3.org/2000/svg">
<rect width="57.5343" height="24.9659" fill="#FAFAFA"/>
<path d="M13.4531 24.9659C10.1668 24.9659 7.4967 22.3642 7.4967 19.1622C7.4967 15.9601 10.1668 13.3585 13.4531 13.3585C16.7393 13.3585 19.4094 15.9601 19.4094 19.1622C19.4094 22.3642 16.7393 24.9659 13.4531 24.9659ZM13.4531 14.9095C11.0397 14.9095 9.03714 16.8107 9.03714 19.2122C9.03714 21.6137 10.9884 23.5149 13.4531 23.5149C15.8664 23.5149 17.869 21.6137 17.869 19.2122C17.869 16.8107 15.8664 14.9095 13.4531 14.9095Z" fill="#0502D3"/>
<path d="M13.4532 21.7139C11.9642 21.7139 10.7318 20.5131 10.7318 19.0622C10.7318 17.6113 11.9642 16.4105 13.4532 16.4105C14.9423 16.4105 16.1747 17.6113 16.1747 19.0622C16.1747 20.5632 14.9423 21.7139 13.4532 21.7139ZM13.4532 17.9615C12.8371 17.9615 12.2722 18.4618 12.2722 19.1122C12.2722 19.7126 12.7857 20.263 13.4532 20.263C14.0694 20.263 14.6342 19.7626 14.6342 19.1122C14.6342 18.4618 14.0694 17.9615 13.4532 17.9615Z" fill="#0502D3"/>
<path d="M44.7753 24.9659C41.4891 24.9659 38.819 22.3642 38.819 19.1622C38.819 15.9601 41.4891 13.3585 44.7753 13.3585C48.0616 13.3585 50.7317 16.0102 50.7317 19.2122C50.7317 22.4143 48.0616 24.9659 44.7753 24.9659ZM44.7753 14.9095C42.362 14.9095 40.3594 16.8107 40.3594 19.2122C40.3594 21.6137 42.3106 23.5149 44.7753 23.5149C47.24 23.5149 49.1912 21.6137 49.1912 19.2122C49.1912 16.8107 47.24 14.9095 44.7753 14.9095Z" fill="#0502D3"/>
<path d="M44.7754 21.7139C43.2863 21.7139 42.054 20.5131 42.054 19.0622C42.054 17.6113 43.2863 16.4105 44.7754 16.4105C46.2645 16.4105 47.4968 17.6113 47.4968 19.0622C47.4968 20.5632 46.2645 21.7139 44.7754 21.7139ZM44.7754 17.9615C44.1592 17.9615 43.5944 18.4618 43.5944 19.1122C43.5944 19.7126 44.1079 20.263 44.7754 20.263C45.3916 20.263 45.9564 19.7626 45.9564 19.1122C45.9564 18.4618 45.4429 17.9615 44.7754 17.9615Z" fill="#0502D3"/>
<path d="M57.0474 19.9127H52.0667V18.4117H55.7124L55.9691 16.6106C56.1232 15.1596 55.0962 14.5092 55.0962 14.5092L54.8908 14.4092L54.7368 14.109C53.8639 12.2078 51.8099 9.9063 49.3966 9.35595L38.6649 6.6042L31.6303 3.25207C29.6277 2.15137 26.2387 1.50095 22.5417 1.50095H15.9178C13.7099 1.50095 10.475 3.70235 8.57509 5.85372C7.85622 6.65423 7.03465 7.35467 6.11039 7.85499L2.87548 9.6061C2.05391 10.1064 1.54043 11.007 1.54043 11.9576V15.3097C1.54043 16.9107 3.90243 18.4117 5.75096 18.4117V19.9127H4.77535V19.8126C2.41335 19.4123 0 17.5612 0 15.3097V11.9576C0 10.4566 0.821565 9.05575 2.15661 8.35531L5.39152 6.6042C6.16174 6.20394 6.82926 5.60356 7.39409 4.95315C9.55069 2.45156 13.145 0 15.9178 0H22.5417C24.4416 0 29.2169 0.200127 32.3491 1.95124L39.2811 5.25334L49.8074 7.95505C52.6315 8.60547 54.9935 11.1571 56.1232 13.4085C56.5853 13.8088 57.7149 14.9095 57.5096 16.8107L57.0474 19.9127Z" fill="#0502D3"/>
<path d="M22.1309 8.95557H21.6174V7.45462H22.1309V8.95557ZM19.5635 8.95557H17.5096V7.45462H19.5635V8.95557ZM15.4556 8.95557H13.4017V7.45462H15.4556V8.95557Z" fill="#0502D3"/>
<path d="M35.7895 8.95567H22.131V7.45472H33.3248L29.8845 5.80367C28.2414 4.9031 25.5199 4.40278 22.5931 4.40278H17.561C16.0206 4.40278 13.7613 5.80367 12.2722 7.35465L12.3749 7.45472H13.4019V8.95567H11.7587L10.1156 7.45472L10.5777 6.90437C12.3236 4.9031 15.2504 2.90182 17.561 2.90182H22.5931C24.1336 2.90182 27.9846 3.05192 30.552 4.50284L36.5084 7.35465L35.7895 8.95567Z" fill="#0502D3"/>
<path d="M37.1759 18.4116H21.0527V19.9126H37.1759V18.4116Z" fill="#0502D3"/>
<path d="M55.2502 14.5593L51.2964 13.7087C50.3721 13.5086 49.5506 12.9582 48.9857 12.2078L48.1642 11.007L49.4479 10.1565L50.3208 11.3572C50.6289 11.8075 51.1424 12.1577 51.7072 12.2578L55.661 13.1083L55.2502 14.5593Z" fill="#0502D3"/>
</svg>
