<svg width="40" height="33" viewBox="0 0 40 33" fill="none" xmlns="http://www.w3.org/2000/svg">
<path d="M38.7038 32.1115H1.7284C1.27192 32.1115 0.81543 31.6461 0.81543 31.1807V0.930768C0.81543 0.465384 1.27192 0 1.7284 0C2.18489 0 2.64138 0.465384 2.64138 0.930768V29.7846H38.4756C38.9321 29.7846 39.3886 30.25 39.3886 30.7153C39.6168 31.6461 39.1603 32.1115 38.7038 32.1115Z" fill="#424242"/>
<path fill-rule="evenodd" clip-rule="evenodd" d="M32.1669 1.67661C32.5188 1.64464 32.8615 1.80004 33.0693 2.08576L38.4212 9.44464C38.7472 9.89285 38.6481 10.5204 38.1999 10.8464C37.7517 11.1724 37.1241 11.0733 36.7981 10.6251L32.435 4.62575L25.1346 19.835C24.9937 20.1283 24.7194 20.3352 24.3986 20.3899C24.0778 20.4446 23.7504 20.3404 23.5203 20.1103L13.837 10.4269L7.07941 25.1707C6.8485 25.6746 6.25289 25.8958 5.74907 25.6649C5.24526 25.434 5.02403 24.8383 5.25495 24.3345L12.6138 8.27878C12.7507 7.98009 13.0252 7.76734 13.3486 7.70922C13.672 7.65111 14.0033 7.75498 14.2356 7.98732L23.9381 17.6897L31.3531 2.24174C31.506 1.92324 31.8151 1.70859 32.1669 1.67661Z" fill="#424242"/>
</svg>
