<svg width="90" height="98" viewBox="0 0 90 98" fill="none" xmlns="http://www.w3.org/2000/svg">
<path d="M61.3738 54.9445C69.6998 43.2486 66.9152 27.0533 55.1582 18.7726C43.4013 10.4918 27.1214 13.26 18.7975 24.9579C10.4735 36.6537 13.2561 52.8471 25.0151 61.1278C33.4066 67.0381 44.5012 67.4932 53.3522 62.2932L72.5838 81.3102C74.6603 83.4847 78.1152 83.5718 80.3011 81.5061C82.487 79.4423 82.5745 76.0054 80.5 73.8308C80.4344 73.7616 80.3707 73.6983 80.3011 73.633L61.3738 54.9445ZM40.0697 56.7174C30.7792 56.7194 23.2468 49.2321 23.2409 39.9898C23.2389 30.7474 30.7652 23.2542 40.0578 23.2503C49.3365 23.2463 56.8648 30.7217 56.8827 39.9522C56.8986 49.1965 49.3762 56.7015 40.0817 56.7174C40.0777 56.7174 40.0757 56.7174 40.0697 56.7174Z" fill="#0502D3"/>
<path d="M2.48603 14.84C3.87821 14.84 4.97207 13.7445 4.97207 12.3501V4.97988H12.4302C13.8223 4.97988 14.9162 3.88431 14.9162 2.48994C14.9162 1.09557 13.7229 0 12.3307 0H2.48603C1.09385 0 0 1.09557 0 2.48994V12.3501C0 13.7445 1.09385 14.84 2.48603 14.84Z" fill="#0502D3"/>
<path d="M86.5143 0H76.6696C75.2774 0 74.1836 1.09557 74.1836 2.48994C74.1836 3.88431 75.2774 4.97988 76.6696 4.97988H84.1277V12.4497C84.1277 13.8441 85.2216 14.9396 86.6138 14.9396C88.0059 14.9396 89.0998 13.8441 89.0998 12.4497V2.48994C89.0004 1.09557 87.9065 0 86.5143 0Z" fill="#0502D3"/>
<path d="M3.48603 97.4592H13.3307C14.7229 97.4592 15.8168 96.3636 15.8168 94.9692C15.8168 93.5749 14.7229 92.4793 13.3307 92.4793H5.97207V85.0095C5.97207 83.6151 4.87821 82.5195 3.48603 82.5195C2.09385 82.5195 1 83.6151 1 85.0095V94.8696C1 96.3636 2.09385 97.4592 3.48603 97.4592Z" fill="#0502D3"/>
<path d="M87.5122 82.6191C86.12 82.6191 85.0262 83.7147 85.0262 85.1091V92.5789H77.5681C76.1759 92.5789 75.082 93.6745 75.082 95.0688C75.082 96.4632 76.1759 97.5588 77.5681 97.5588H87.5122C88.9044 97.5588 89.9982 96.4632 89.9982 95.0688V85.2087C89.9982 83.7147 88.9044 82.6191 87.5122 82.6191Z" fill="#0502D3"/>
</svg>
