<svg width="12" height="12" viewBox="0 0 12 12" fill="none" xmlns="http://www.w3.org/2000/svg">
<path d="M0.30692 1.79698C0.478795 1.79698 0.61384 1.66432 0.61384 1.49548V0.603015H1.5346C1.70647 0.603015 1.84152 0.470351 1.84152 0.301507C1.84152 0.132663 1.6942 0 1.52232 0H0.30692C0.135045 0 0 0.132663 0 0.301507V1.49548C0 1.66432 0.135045 1.79698 0.30692 1.79698Z" fill="#0502D3"/>
<path d="M10.6825 0H9.46708C9.2952 0 9.16016 0.132663 9.16016 0.301507C9.16016 0.470351 9.2952 0.603014 9.46708 0.603014H10.3878V1.50754C10.3878 1.67638 10.5229 1.80904 10.6948 1.80904C10.8666 1.80904 11.0017 1.67638 11.0017 1.50754V0.301507C10.9894 0.132663 10.8544 0 10.6825 0Z" fill="#0502D3"/>
<path d="M0.30692 7.19967H1.52232C1.6942 7.19967 1.82924 7.067 1.82924 6.89816C1.82924 6.72932 1.6942 6.59665 1.52232 6.59665H0.613839V5.69213C0.613839 5.52329 0.478795 5.39062 0.30692 5.39062C0.135045 5.39062 0 5.52329 0 5.69213V6.8861C0 7.067 0.135045 7.19967 0.30692 7.19967Z" fill="#0502D3"/>
<path d="M10.6791 5.40332C10.5073 5.40332 10.3722 5.53598 10.3722 5.70483V6.60935H9.45145C9.27958 6.60935 9.14453 6.74201 9.14453 6.91086C9.14453 7.0797 9.27958 7.21236 9.45145 7.21236H10.6791C10.851 7.21236 10.986 7.0797 10.986 6.91086V5.71689C10.986 5.53598 10.851 5.40332 10.6791 5.40332Z" fill="#0502D3"/>
<path d="M8.39732 8.43064C7.43973 8.15326 7.02232 7.98441 7.02232 7.502V6.86281C7.02232 6.79044 7.08371 6.7422 7.12054 6.71808C8.01674 6.07889 8.55692 4.63165 8.55692 3.60653C8.54464 1.94221 7.18192 0.603516 5.5 0.603516C3.8058 0.603516 2.44308 1.94221 2.44308 3.59447C2.44308 4.61959 2.98326 6.06683 3.87946 6.70602C3.90402 6.73014 3.97768 6.77838 3.97768 6.85074V7.48994C3.97768 7.97235 3.56027 8.15326 2.60268 8.41858C1.49777 8.74421 0 9.17838 0 11.096V11.699C0 11.8678 0.135045 12.0005 0.30692 12.0005H10.6808C10.8527 12.0005 10.9877 11.8678 10.9877 11.699V11.096C10.9877 9.17838 9.48996 8.74421 8.39732 8.43064ZM10.3739 11.3975H0.613839V11.096C0.613839 9.62461 1.65737 9.3231 2.77455 9.00954C3.67076 8.75627 4.59152 8.49094 4.59152 7.502V6.86281C4.59152 6.6216 4.46875 6.39245 4.24777 6.23567C3.53571 5.72914 3.0692 4.46281 3.0692 3.60653C3.0692 2.2799 4.16183 1.20653 5.51228 1.20653C6.86272 1.20653 7.95536 2.2799 7.95536 3.60653C7.95536 4.47487 7.47656 5.72914 6.77679 6.23567C6.5558 6.39245 6.43304 6.6216 6.43304 6.86281V7.502C6.43304 8.49094 7.35379 8.75627 8.25 9.00954C9.35491 9.3231 10.4107 9.62461 10.4107 11.096V11.3975H10.3739Z" fill="#0502D3"/>
</svg>
