<svg xmlns="http://www.w3.org/2000/svg" viewBox="0 0 56 39.45"><defs><style>.cls-1{fill:#0502d3;}</style></defs><g id="Capa_2" data-name="Capa 2"><g id="Capa_1-2" data-name="Capa 1"><path class="cls-1" d="M52.18,33.69H46.27v1.46h5.91Z"/><path class="cls-1" d="M36.58,33.69H15.94v1.46H36.58Z"/><path class="cls-1" d="M41.47,39.45a5.13,5.13,0,1,1,5.14-5.13A5.13,5.13,0,0,1,41.47,39.45Zm0-8.84a3.67,3.67,0,1,0,3.67,3.66A3.66,3.66,0,0,0,41.47,30.61Z"/><path class="cls-1" d="M11.54,39.45a5.13,5.13,0,1,1,5.14-5.13A5.13,5.13,0,0,1,11.54,39.45Zm0-8.84a3.67,3.67,0,1,0,3.67,3.66A3.63,3.63,0,0,0,11.54,30.61Z"/><path class="cls-1" d="M41.47,36.67a2.45,2.45,0,1,1,2.45-2.45A2.49,2.49,0,0,1,41.47,36.67Zm0-3.42a1,1,0,1,0,1,1A1,1,0,0,0,41.47,33.25Z"/><path class="cls-1" d="M11.54,36.67A2.45,2.45,0,1,1,14,34.22,2.46,2.46,0,0,1,11.54,36.67Zm0-3.42a1,1,0,1,0,1,1A1,1,0,0,0,11.54,33.25Z"/><path class="cls-1" d="M6.31,7.53H4.84V4.74a1,1,0,0,1,1-1H15.94V5.18H6.31Z"/><path class="cls-1" d="M6.31,9.29H4.84v2.3H6.31Z"/><path class="cls-1" d="M40.15,22.73H36.83V24.2h3.32Z"/><path class="cls-1" d="M7.14,35.05H2.54a2.54,2.54,0,0,1,0-5.08H5.87v1.47H2.54a1.08,1.08,0,0,0,0,2.15h4.6v1.46Z"/><path class="cls-1" d="M53.85,29.82H46.61v1.47h7.24Z"/><path class="cls-1" d="M53.8,28.89H51.06a2.6,2.6,0,0,1,0-5.18h.83v1.47h-.83a1,1,0,0,0-.93,1.12,1,1,0,0,0,.93,1.13H53.8Z"/><path class="cls-1" d="M52.77,35.15H51V33.69h1.81A1.74,1.74,0,0,0,54.48,32v-.68H53V27.57L48.13,17.16c-.44-1.22-1.72-4.6-2.25-5.52a5,5,0,0,0-4.26-2.16h-6V31.29H17.41V29.82H34.19V8h7.48A6.65,6.65,0,0,1,47.2,10.9a50.16,50.16,0,0,1,2.34,5.72l5,10.61v2.59h.15A1.32,1.32,0,0,1,56,31.14V32A3.24,3.24,0,0,1,52.77,35.15Z"/><path class="cls-1" d="M46.61,20.49H40.15A3.15,3.15,0,0,1,37,17.36V11.73h6.85l2.79,6.16ZM38.49,13.2v4.16A1.64,1.64,0,0,0,40.15,19h5v-.83l-2.25-5Z"/><path class="cls-1" d="M35.6,4.4H34.14V8.75H35.6Z"/><path class="cls-1" d="M31.94,28.26H30.47V2.88a1.42,1.42,0,0,0-1.42-1.41H4.35A1.42,1.42,0,0,0,2.93,2.88V28.26H1.47V2.88A2.92,2.92,0,0,1,4.35,0h24.7a2.9,2.9,0,0,1,2.89,2.88Z"/></g></g></svg>