<svg width="62" height="29" viewBox="0 0 62 29" fill="none" xmlns="http://www.w3.org/2000/svg">
<path d="M15.19 27.8423C11.751 27.8423 8.95679 25.0452 8.95679 21.6024C8.95679 18.1597 11.751 15.3625 15.19 15.3625C18.6291 15.3625 21.4233 18.1597 21.4233 21.6024C21.4233 25.0452 18.6291 27.8423 15.19 27.8423ZM15.19 17.0301C12.6645 17.0301 10.5688 19.0742 10.5688 21.6562C10.5688 24.2383 12.6108 26.2824 15.19 26.2824C17.7156 26.2824 19.8113 24.2383 19.8113 21.6562C19.8113 19.0742 17.7156 17.0301 15.19 17.0301Z" fill="#424242" stroke="#424242" stroke-width="0.401394"/>
<path d="M15.1899 24.3453C13.6316 24.3453 12.3419 23.0543 12.3419 21.4943C12.3419 19.9343 13.6316 18.6433 15.1899 18.6433C16.7482 18.6433 18.0378 19.9343 18.0378 21.4943C18.0378 23.1081 16.7482 24.3453 15.1899 24.3453ZM15.1899 20.3109C14.5451 20.3109 13.954 20.8488 13.954 21.5481C13.954 22.1936 14.4913 22.7853 15.1899 22.7853C15.8347 22.7853 16.4258 22.2474 16.4258 21.5481C16.4258 20.8488 15.8347 20.3109 15.1899 20.3109Z" fill="#424242" stroke="#424242" stroke-width="0.401394"/>
<path d="M47.9686 27.8423C44.5296 27.8423 41.7354 25.0452 41.7354 21.6024C41.7354 18.1597 44.5296 15.3625 47.9686 15.3625C51.4076 15.3625 54.2019 18.2135 54.2019 21.6562C54.2019 25.0989 51.4076 27.8423 47.9686 27.8423ZM47.9686 17.0301C45.4431 17.0301 43.3474 19.0742 43.3474 21.6562C43.3474 24.2383 45.3893 26.2824 47.9686 26.2824C50.5479 26.2824 52.5898 24.2383 52.5898 21.6562C52.5898 19.0742 50.5479 17.0301 47.9686 17.0301Z" fill="#424242" stroke="#424242" stroke-width="0.401394"/>
<path d="M47.9684 24.3453C46.4101 24.3453 45.1205 23.0543 45.1205 21.4943C45.1205 19.9343 46.4101 18.6433 47.9684 18.6433C49.5268 18.6433 50.8164 19.9343 50.8164 21.4943C50.8164 23.1081 49.5268 24.3453 47.9684 24.3453ZM47.9684 20.3109C47.3236 20.3109 46.7325 20.8488 46.7325 21.5481C46.7325 22.1936 47.2699 22.7853 47.9684 22.7853C48.6133 22.7853 49.2043 22.2474 49.2043 21.5481C49.2043 20.8488 48.667 20.3109 47.9684 20.3109Z" fill="#424242" stroke="#424242" stroke-width="0.401394"/>
<path d="M60.8112 22.4093H55.5989V20.7955H59.4141L59.6827 18.859C59.8439 17.2991 58.7692 16.5998 58.7692 16.5998L58.5543 16.4922L58.3931 16.1694C57.4796 14.1253 55.3302 11.6509 52.8047 11.0591L41.574 8.10058L34.2123 4.4965C32.1167 3.31307 28.5702 2.61377 24.7012 2.61377H17.7694C15.4588 2.61377 12.0735 4.98063 10.0853 7.29369C9.33303 8.15437 8.47327 8.90746 7.50604 9.44538L4.12073 11.3281C3.26097 11.866 2.72362 12.8343 2.72362 13.8563V17.4604C2.72362 19.1818 5.19543 20.7955 7.12989 20.7955V22.4093H6.10893V22.3017C3.63712 21.8714 1.11157 19.8811 1.11157 17.4604V13.8563C1.11157 12.2426 1.97133 10.7364 3.36844 9.9833L6.75375 8.10058C7.55977 7.67024 8.25833 7.02473 8.84941 6.32543C11.1063 3.63582 14.8677 1 17.7694 1H24.7012C26.6894 1 31.6868 1.21517 34.9646 3.0979L42.2189 6.64819L53.2345 9.55297C56.19 10.2523 58.6618 12.9957 59.8439 15.4163C60.3276 15.8467 61.5097 17.0301 61.2948 19.0742L60.8112 22.4093Z" fill="#424242" stroke="#424242" stroke-width="0.401394"/>
<path d="M24.2714 10.6301H23.7341V9.01636H24.2714V10.6301ZM21.5847 10.6301H19.4353V9.01636H21.5847V10.6301ZM17.2859 10.6301H15.1365V9.01636H17.2859V10.6301Z" fill="#424242" stroke="#424242" stroke-width="0.401394"/>
<path d="M38.5645 10.629H24.271V9.01521H35.9852L32.385 7.24007C30.6655 6.27181 27.8175 5.73388 24.7546 5.73388H19.4886C17.8765 5.73388 15.5122 7.24007 13.9539 8.90763L14.0614 9.01521H15.1361V10.629H13.4165L11.697 9.01521L12.1806 8.4235C14.0076 6.27181 17.0705 4.12012 19.4886 4.12012H24.7546C26.3667 4.12012 30.3968 4.28149 33.0836 5.84147L39.3168 8.90763L38.5645 10.629Z" fill="#424242" stroke="#424242" stroke-width="0.401394"/>
<path d="M40.0155 20.7959H23.1427V22.4097H40.0155V20.7959Z" fill="#424242" stroke="#424242" stroke-width="0.401394"/>
<path d="M58.9304 16.6541L54.7928 15.7397C53.8256 15.5245 52.9659 14.9328 52.3748 14.1259L51.515 12.8349L52.8584 11.9204L53.7719 13.2114C54.0943 13.6956 54.6316 14.0721 55.2227 14.1797L59.3603 15.0942L58.9304 16.6541Z" fill="#424242" stroke="#424242" stroke-width="0.401394"/>
</svg>
