<svg width="66" height="41" viewBox="0 0 66 41" fill="none" xmlns="http://www.w3.org/2000/svg">
<path d="M10.8803 40C16.3371 40 20.7606 35.4759 20.7606 29.8952C20.7606 24.3145 16.3371 19.7904 10.8803 19.7904C5.42356 19.7904 1 24.3145 1 29.8952C1 35.4759 5.42356 40 10.8803 40Z" stroke="#FAFAFA" stroke-width="1.5" stroke-miterlimit="10" stroke-linecap="round"/>
<path d="M10.8803 34.0393C13.1182 34.0393 14.9323 32.1839 14.9323 29.8952C14.9323 27.6065 13.1182 25.7511 10.8803 25.7511C8.64241 25.7511 6.82825 27.6065 6.82825 29.8952C6.82825 32.1839 8.64241 34.0393 10.8803 34.0393Z" stroke="#FAFAFA" stroke-width="1.5" stroke-miterlimit="10" stroke-linecap="round"/>
<path d="M55.1197 40C60.5764 40 65 35.4759 65 29.8952C65 24.3145 60.5764 19.7904 55.1197 19.7904C49.6629 19.7904 45.2394 24.3145 45.2394 29.8952C45.2394 35.4759 49.6629 40 55.1197 40Z" stroke="#FAFAFA" stroke-width="1.5" stroke-miterlimit="10" stroke-linecap="round"/>
<path d="M55.1197 34.0393C57.3575 34.0393 59.1717 32.1839 59.1717 29.8952C59.1717 27.6065 57.3575 25.7511 55.1197 25.7511C52.8818 25.7511 51.0676 27.6065 51.0676 29.8952C51.0676 32.1839 52.8818 34.0393 55.1197 34.0393Z" stroke="#FAFAFA" stroke-width="1.5" stroke-miterlimit="10" stroke-linecap="round"/>
<path d="M5.10754 9.91264H29.6973L35.9696 5.93884H43.1856" stroke="#FAFAFA" stroke-width="1.5" stroke-miterlimit="10" stroke-linecap="round"/>
<path d="M35.6366 1H40.9653L53.0104 25.9214" stroke="#FAFAFA" stroke-width="1.5" stroke-miterlimit="10" stroke-linecap="round"/>
<path d="M48.4033 10.8777H53.6765" stroke="#FAFAFA" stroke-width="1.5" stroke-miterlimit="10" stroke-linecap="round"/>
<path d="M11.7683 9.91272C11.7683 9.91272 14.4327 15.1354 20.2054 16.8385C25.9782 18.5415 31.1959 15.249 31.1959 15.249C31.1959 15.249 34.6373 19.2228 40.2436 17.1223C44.0181 15.7031 45.7943 11.1049 45.7943 11.1049" stroke="#FAFAFA" stroke-width="1.5" stroke-miterlimit="10" stroke-linecap="round"/>
<path d="M13.9888 26.9999C13.9888 26.9999 18.3739 26.6025 21.8708 23.4803C24.7572 20.9257 25.7563 17.2357 25.7563 17.2357" stroke="#FAFAFA" stroke-width="1.5" stroke-miterlimit="10" stroke-linecap="round"/>
<path d="M14.8768 30.6899C14.8768 30.6899 21.1492 28.4192 25.8673 28.9869C30.6964 29.5546 32.1396 31.9388 35.6921 29.9519C38.634 28.3057 38.4675 24.1048 38.4675 17.7467" stroke="#FAFAFA" stroke-width="1.5" stroke-miterlimit="10" stroke-linecap="round"/>
<path d="M22.9254 22.4586L31.5291 24.1049L31.196 15.3058" stroke="#FAFAFA" stroke-width="1.5" stroke-miterlimit="10" stroke-linecap="round"/>
</svg>
