<svg width="42" height="44" viewBox="0 0 42 44" fill="none" xmlns="http://www.w3.org/2000/svg">
<path d="M4.96317 31.5158V23.1974C4.96317 16.38 8.75021 6.68994 20.0232 6.68994C31.2962 6.68994 33.498 16.38 33.498 23.1974V31.5158C35.0833 31.5158 37.4612 32.1616 37.4612 34.745C37.4612 37.3284 35.0833 37.9743 33.498 37.9743H4.96317C3.64212 37.9743 1 37.3284 1 34.745C1 32.1616 3.64212 31.5158 4.96317 31.5158ZM4.96317 31.5158H16.0601" stroke="#9D9D9D" stroke-width="1.33798" stroke-linecap="round" stroke-linejoin="round"/>
<path d="M24.7793 37.9714C24.7793 40.6467 22.2951 42.8153 19.2308 42.8153C16.1665 42.8153 13.6824 40.6467 13.6824 37.9714" stroke="#9D9D9D" stroke-width="1.33798"/>
<path d="M19.231 31.5117H24.7794" stroke="#9D9D9D" stroke-width="1.33798" stroke-linecap="round" stroke-linejoin="round"/>
<circle cx="33.0461" cy="8.69686" r="8.69686" fill="#F82905"/>
<path d="M29.5835 5.38392C29.6192 5.36251 29.6727 5.35181 29.7441 5.35181H31.0392C31.0749 5.35181 31.1035 5.36608 31.1249 5.39462C31.1534 5.41603 31.1677 5.44457 31.1677 5.48025V12.716C31.1677 12.7517 31.1534 12.7838 31.1249 12.8124C31.1035 12.8338 31.0749 12.8445 31.0392 12.8445H29.7869C29.7512 12.8445 29.7191 12.8338 29.6906 12.8124C29.6691 12.7838 29.6584 12.7517 29.6584 12.716V6.85034C29.6584 6.83607 29.6513 6.8218 29.637 6.80753C29.6228 6.79326 29.6085 6.78969 29.5942 6.79682L28.5345 7.08583L28.4917 7.09653C28.4275 7.09653 28.3954 7.05728 28.3954 6.97879L28.3633 6.05826C28.3633 5.9869 28.3954 5.93695 28.4596 5.90841L29.5835 5.38392Z" fill="white"/>
<path d="M36.8676 9.26941C37.0104 9.59766 37.0817 9.97586 37.0817 10.404C37.0817 10.7894 37.0175 11.1461 36.8891 11.4744C36.7178 11.9311 36.4288 12.2879 36.022 12.5448C35.6224 12.8017 35.1479 12.9301 34.5984 12.9301C34.0561 12.9301 33.578 12.7945 33.1641 12.5234C32.7574 12.2522 32.4648 11.8847 32.2864 11.4209C32.1865 11.1426 32.1294 10.8429 32.1151 10.5218C32.1151 10.4361 32.158 10.3933 32.2436 10.3933H33.5066C33.5923 10.3933 33.6351 10.4361 33.6351 10.5218C33.6636 10.7572 33.7029 10.9321 33.7528 11.0462C33.8171 11.2318 33.9205 11.3781 34.0632 11.4851C34.2131 11.585 34.3879 11.635 34.5877 11.635C34.9873 11.635 35.2621 11.4601 35.4119 11.1105C35.5118 10.8964 35.5618 10.6466 35.5618 10.3612C35.5618 10.0258 35.5083 9.75108 35.4012 9.53701C35.2371 9.20162 34.9624 9.03393 34.577 9.03393C34.4985 9.03393 34.4165 9.0589 34.3308 9.10885C34.2452 9.15167 34.1417 9.21589 34.0204 9.30152C33.9919 9.32293 33.9633 9.33363 33.9348 9.33363C33.892 9.33363 33.8599 9.31223 33.8385 9.26941L33.2069 8.38099C33.1927 8.35958 33.1855 8.33461 33.1855 8.30606C33.1855 8.26325 33.1998 8.22757 33.2283 8.19903L34.9303 6.71119C34.9445 6.69692 34.9481 6.68265 34.941 6.66838C34.941 6.65411 34.9303 6.64697 34.9088 6.64697H32.3934C32.3578 6.64697 32.3257 6.63627 32.2971 6.61486C32.2757 6.58632 32.265 6.5542 32.265 6.51852V5.48025C32.265 5.44457 32.2757 5.41603 32.2971 5.39462C32.3257 5.36608 32.3578 5.35181 32.3934 5.35181H36.8569C36.8926 5.35181 36.9212 5.36608 36.9426 5.39462C36.9711 5.41603 36.9854 5.44457 36.9854 5.48025V6.65767C36.9854 6.71476 36.9604 6.76828 36.9105 6.81823L35.5083 8.10269C35.494 8.11696 35.4869 8.13124 35.4869 8.14551C35.494 8.15978 35.5118 8.16691 35.5404 8.16691C36.1612 8.28822 36.6036 8.65572 36.8676 9.26941Z" fill="white"/>
</svg>
