<svg width="64" height="39" viewBox="0 0 64 39" fill="none" xmlns="http://www.w3.org/2000/svg">
<path d="M43.2773 32.0219H17.798V33.6677H43.2773V32.0219Z" fill="#FAFAFA"/>
<path d="M49.2462 39C45.7888 39 42.9729 36.1582 42.9729 32.6691C42.9729 29.18 45.7888 26.3383 49.2462 26.3383C52.7036 26.3383 55.5196 29.18 55.5196 32.6691C55.5196 36.1582 52.7091 39 49.2462 39ZM49.2462 27.9841C46.6858 27.9841 44.6038 30.0852 44.6038 32.6691C44.6038 35.253 46.6858 37.3542 49.2462 37.3542C51.8067 37.3542 53.8887 35.253 53.8887 32.6691C53.8887 30.0907 51.8067 27.9841 49.2462 27.9841Z" fill="#FAFAFA"/>
<path d="M49.2462 35.5164C47.6262 35.5164 46.3107 34.1888 46.3107 32.554C46.3107 30.9192 47.6262 29.5916 49.2462 29.5916C50.8662 29.5916 52.1817 30.9192 52.1817 32.554C52.1817 34.1888 50.8662 35.5164 49.2462 35.5164ZM49.2462 31.2428C48.5286 31.2428 47.9415 31.8353 47.9415 32.5595C47.9415 33.2836 48.5286 33.8761 49.2462 33.8761C49.9638 33.8761 50.5509 33.2836 50.5509 32.5595C50.5509 31.8353 49.9638 31.2428 49.2462 31.2428Z" fill="#FAFAFA"/>
<path d="M12.351 39C8.89356 39 6.07764 36.1582 6.07764 32.6691C6.07764 29.18 8.89356 26.3383 12.351 26.3383C15.8084 26.3383 18.6243 29.18 18.6243 32.6691C18.6189 36.1582 15.8084 39 12.351 39ZM12.351 27.9841C9.79053 27.9841 7.70849 30.0852 7.70849 32.6691C7.70849 35.253 9.79053 37.3542 12.351 37.3542C14.9114 37.3542 16.9935 35.253 16.9935 32.6691C16.988 30.0907 14.906 27.9841 12.351 27.9841Z" fill="#FAFAFA"/>
<path d="M12.3509 35.5163C10.731 35.5163 9.41541 34.1887 9.41541 32.5539C9.41541 30.919 10.731 29.5914 12.3509 29.5914C13.9709 29.5914 15.2865 30.919 15.2865 32.5539C15.2865 34.1887 13.9655 35.5163 12.3509 35.5163ZM12.3509 31.2427C11.6334 31.2427 11.0463 31.8352 11.0463 32.5593C11.0463 33.2835 11.6334 33.876 12.3509 33.876C13.0685 33.876 13.6556 33.2835 13.6556 32.5593C13.6556 31.8352 13.0685 31.2427 12.3509 31.2427Z" fill="#FAFAFA"/>
<path d="M6.89307 33.4921H3.0497C1.36449 33.4921 0 32.1096 0 30.4144C0 28.7138 1.36992 27.3368 3.0497 27.3368H5.92544V28.9826H3.0497C2.26689 28.9826 1.63085 29.6245 1.63085 30.4144C1.63085 31.2044 2.26689 31.8463 3.0497 31.8463H6.89307V33.4921Z" fill="#FAFAFA"/>
<path d="M42.1575 28.9771H20.0975L16.0041 24.0068H2.34302V22.361H16.7706L20.864 27.3313H42.1575V28.9771Z" fill="#FAFAFA"/>
<path d="M59.4988 33.6676H55.2206V32.0218H59.4988C61.0808 32.0218 62.3691 30.7217 62.3691 29.1252V28.9881L56.9221 28.9771V27.3313H62.3583C63.2661 27.3313 64 28.0774 64 28.9881V29.1252C63.9945 31.6323 61.9777 33.6676 59.4988 33.6676Z" fill="#FAFAFA"/>
<path d="M3.23998 28.3297L1.62 28.1596L3.65856 8.29478C3.84882 6.5228 5.32203 5.1897 7.08335 5.1897H36.1995C37.3465 5.1897 38.412 5.76025 39.0534 6.7203L44.8756 15.9368L57.2592 18.1367C59.7326 18.5756 61.6516 20.556 62.0321 23.0631L62.0376 23.1234L62.4127 28.0938L60.7872 28.2199L60.4121 23.2825C60.1295 21.4886 58.7487 20.0732 56.9765 19.7605L43.8862 17.4345L37.689 7.62548C37.3628 7.13723 36.8029 6.8355 36.1995 6.8355H7.08335C6.15377 6.8355 5.38183 7.53771 5.27854 8.46484L3.23998 28.3297Z" fill="#FAFAFA"/>
<path d="M35.0306 10.78H32.8561V9.13416H35.0306V10.78ZM30.6817 10.78H28.5072V9.13416H30.6817V10.78Z" fill="#FAFAFA"/>
<path d="M44.3755 17.3741H12.0955C11.5628 17.3741 11.0518 17.1437 10.693 16.7487C10.3342 16.3537 10.1548 15.8161 10.2037 15.2785L10.606 10.8732C10.6984 9.88024 11.5138 9.12866 12.4978 9.12866H28.5073V10.7745H12.4978C12.3564 10.7745 12.2423 10.8842 12.226 11.0213L11.8237 15.4266C11.8128 15.5308 11.8617 15.6022 11.8944 15.6351C11.927 15.668 11.9922 15.7228 12.0955 15.7228H44.3755V17.3741Z" fill="#FAFAFA"/>
<path d="M26.3057 9.95715H24.6748V16.5568H26.3057V9.95715Z" fill="#FAFAFA"/>
<path d="M26.3057 19.0748H24.6748V25.6745H26.3057V19.0748Z" fill="#FAFAFA"/>
<path d="M61.32 25.2905H56.7971C55.1934 25.2905 53.8942 23.9738 53.8942 22.3609V21.3241H55.525V22.3609C55.525 23.0686 56.0958 23.6447 56.7971 23.6447H61.32V25.2905Z" fill="#FAFAFA"/>
<path d="M34.5958 0H6.83325V1.6458H34.5958V0Z" fill="#FAFAFA"/>
<path d="M10.7215 0.538745L9.57129 3.57788L11.0948 4.1651L12.245 1.12597L10.7215 0.538745Z" fill="#FAFAFA"/>
<path d="M30.7121 0.533267L29.1884 1.12L30.3376 4.15946L31.8613 3.57273L30.7121 0.533267Z" fill="#FAFAFA"/>
</svg>
