<svg width="167" height="96" viewBox="0 0 167 96" fill="none" xmlns="http://www.w3.org/2000/svg">
<path d="M50.9531 66.8662C43.0869 66.8662 36.6875 73.2656 36.6875 81.1318C36.6875 88.998 43.0869 95.3975 50.9531 95.3975C58.8193 95.3975 65.2187 88.998 65.2187 81.1318C65.2187 73.2656 58.8193 66.8662 50.9531 66.8662ZM50.9531 88.9131C46.6627 88.9131 43.1719 85.4222 43.1719 81.1318C43.1719 76.8414 46.6627 73.3506 50.9531 73.3506C55.2435 73.3506 58.7344 76.8414 58.7344 81.1318C58.7344 85.4222 55.2435 88.9131 50.9531 88.9131Z" fill="white"/>
<path d="M148.251 0.000976562H131.634C129.844 0.000976562 128.392 1.4525 128.392 3.24316C128.392 5.03382 129.844 6.48535 131.634 6.48535H148.251C153.435 6.48535 157.81 10.0064 159.117 14.7821H131.634C129.844 14.7821 128.392 16.2336 128.392 18.0243V47.1764C128.392 48.9671 129.844 50.4186 131.634 50.4186H159.517V77.9493H150.004C148.553 71.6112 142.872 66.8666 136.101 66.8666C129.329 66.8666 123.648 71.6108 122.198 77.9493H121.908V18.0528C121.908 16.2622 120.456 14.8106 118.665 14.8106H92.728C90.9373 14.8106 89.4858 16.2622 89.4858 18.0528V44.0947H29.2891C27.4984 44.0947 26.0469 45.5463 26.0469 47.3369C26.0469 49.1276 27.4984 50.5791 29.2891 50.5791H89.4858V77.9487H72.9506C71.16 77.9487 69.7084 79.4002 69.7084 81.1909C69.7084 82.9815 71.16 84.433 72.9506 84.433H122.225C123.719 90.7119 129.371 95.3972 136.101 95.3972C142.83 95.3972 148.483 90.7119 149.977 84.433H162.759C164.55 84.433 166.001 82.9815 166.001 81.1909V17.7516C166.001 7.96379 158.039 0.000976562 148.251 0.000976562ZM115.423 46.3931H113.374C111.583 46.3931 110.132 47.8446 110.132 49.6353C110.132 51.426 111.583 52.8775 113.374 52.8775H115.423V77.9487H95.9702V21.295H115.423V46.3931ZM136.1 88.9131C131.81 88.9131 128.319 85.4222 128.319 81.1319C128.319 76.8415 131.81 73.3506 136.1 73.3506C140.391 73.3506 143.882 76.8415 143.882 81.1319C143.882 85.4222 140.391 88.9131 136.1 88.9131ZM159.517 43.9339H134.876V21.2662H159.517V43.9339Z" fill="white"/>
<path d="M120.956 0.949961C120.353 0.346914 119.517 0 118.664 0C117.811 0 116.975 0.346914 116.372 0.949961C115.769 1.55301 115.422 2.38949 115.422 3.24219C115.422 4.09488 115.769 4.93137 116.372 5.53441C116.975 6.13746 117.811 6.48438 118.664 6.48438C119.517 6.48438 120.353 6.13746 120.956 5.53441C121.559 4.93137 121.906 4.09488 121.906 3.24219C121.906 2.38949 121.559 1.55301 120.956 0.949961Z" fill="white"/>
<path d="M105.695 0.000976562H17.7507C8.86252 0.000976562 1.48038 6.56802 0.198422 15.1047C0.0723008 15.4506 0 15.8225 0 16.2119V81.1909C0 82.9815 1.45153 84.433 3.24219 84.433H27.6487C29.4394 84.433 30.8909 82.9815 30.8909 81.1909C30.8909 79.4002 29.4394 77.949 27.6487 77.949H6.48438V37.6104H17.5078C19.2985 37.6104 20.75 36.1588 20.75 34.3682V16.2119C20.75 14.4213 19.2985 12.9697 17.5078 12.9697H7.55235C9.35436 9.142 13.2469 6.48535 17.7503 6.48535H105.695C107.486 6.48535 108.938 5.03382 108.938 3.24316C108.938 1.4525 107.486 0.000976562 105.695 0.000976562ZM14.2656 19.4541V31.126H6.48438V19.4541H14.2656Z" fill="white"/>
<path d="M19.8 45.0437C19.197 44.4407 18.3605 44.0938 17.5078 44.0938C16.6551 44.0938 15.8186 44.4407 15.2156 45.0437C14.6125 45.6468 14.2656 46.4832 14.2656 47.3359C14.2656 48.1919 14.6125 49.0251 15.2156 49.6282C15.8186 50.2345 16.6551 50.5781 17.5078 50.5781C18.3605 50.5781 19.197 50.2345 19.8 49.6282C20.4031 49.0251 20.75 48.1886 20.75 47.3359C20.75 46.4832 20.4031 45.6468 19.8 45.0437Z" fill="white"/>
<path d="M79.7578 12.9697H61.6016C59.8109 12.9697 58.3594 14.4213 58.3594 16.2119V34.3682C58.3594 36.1588 59.8109 37.6104 61.6016 37.6104H79.7578C81.5485 37.6104 83 36.1588 83 34.3682V16.2119C83 14.4213 81.5485 12.9697 79.7578 12.9697ZM76.5156 31.126H64.8438V19.4541H76.5156V31.126Z" fill="white"/>
<path d="M48.6328 12.9697H30.4766C28.6859 12.9697 27.2344 14.4213 27.2344 16.2119V34.3682C27.2344 36.1588 28.6859 37.6104 30.4766 37.6104H48.6328C50.4235 37.6104 51.875 36.1588 51.875 34.3682V16.2119C51.875 14.4213 50.4235 12.9697 48.6328 12.9697ZM45.3906 31.126H33.7188V19.4541H45.3906V31.126Z" fill="white"/>
</svg>
