<svg width="65" height="36" viewBox="0 0 65 36" fill="none" xmlns="http://www.w3.org/2000/svg">
<path d="M16.5235 36C13.4292 36 10.9089 33.4964 10.9089 30.4223C10.9089 27.3483 13.4292 24.8446 16.5235 24.8446C19.6179 24.8446 22.1381 27.3483 22.1381 30.4223C22.1381 33.4964 19.6179 36 16.5235 36ZM16.5235 26.6458C14.4264 26.6458 12.722 28.3389 12.722 30.4223C12.722 32.5057 14.4264 34.1988 16.5235 34.1988C18.6207 34.1988 20.325 32.5057 20.325 30.4223C20.325 28.3389 18.6207 26.6458 16.5235 26.6458Z" fill="#FAFAFA"/>
<path d="M16.5234 32.1454C17.5347 32.1454 18.3546 31.3309 18.3546 30.3262C18.3546 29.3214 17.5347 28.507 16.5234 28.507C15.512 28.507 14.6921 29.3214 14.6921 30.3262C14.6921 31.3309 15.512 32.1454 16.5234 32.1454Z" fill="#FAFAFA"/>
<path d="M49.7638 36C46.6694 36 44.1492 33.4964 44.1492 30.4223C44.1492 27.3483 46.6694 24.8446 49.7638 24.8446C52.8581 24.8446 55.3784 27.3483 55.3784 30.4223C55.3784 33.4964 52.8581 36 49.7638 36ZM49.7638 26.6458C47.6666 26.6458 45.9623 28.3389 45.9623 30.4223C45.9623 32.5057 47.6666 34.1988 49.7638 34.1988C51.8609 34.1988 53.5653 32.5057 53.5653 30.4223C53.5653 28.3389 51.8609 26.6458 49.7638 26.6458Z" fill="#FAFAFA"/>
<path d="M49.7639 32.1454C50.7752 32.1454 51.5951 31.3309 51.5951 30.3262C51.5951 29.3214 50.7752 28.507 49.7639 28.507C48.7525 28.507 47.9326 29.3214 47.9326 30.3262C47.9326 31.3309 48.7525 32.1454 49.7639 32.1454Z" fill="#FAFAFA"/>
<path d="M9.16225 31.2088H4.91353C2.20595 31.2088 0 29.0173 0 26.3275V6.22015C0 2.79187 2.80428 0 6.25523 0H34.8419V1.8012H6.26127C3.80753 1.8012 1.81916 3.78253 1.81916 6.22015V26.3275C1.81916 28.0267 3.2092 29.4076 4.91957 29.4076H9.16829V31.2088H9.16225Z" fill="#FAFAFA"/>
<path d="M43.0494 17.4777H36.7156V19.2789H43.0494V17.4777Z" fill="#FAFAFA"/>
<path d="M32.9986 17.4777H26.6648V19.2789H32.9986V17.4777Z" fill="#FAFAFA"/>
<path d="M41.7923 29.6958H23.9634V31.497H41.7923V29.6958Z" fill="#FAFAFA"/>
<path d="M64.0933 25.1027H58.6238V19.2488H60.4369V23.3015H64.0933V25.1027Z" fill="#FAFAFA"/>
<path d="M33.9051 14.2354H5.19751V7.30082C5.19751 5.34351 6.80513 3.74646 8.77538 3.74646H33.9051V14.2354ZM7.01062 12.4342H32.092V5.54766H8.77538C7.80234 5.54766 7.01062 6.33417 7.01062 7.30082V12.4342Z" fill="#FAFAFA"/>
<path d="M60.0864 31.497H57.1129V29.6958H60.0864C61.7967 29.6958 63.1868 28.3148 63.1868 26.6157V20.3295L55.5294 13.8572L50.1324 6.35821C48.0775 3.50631 44.7475 1.80718 41.224 1.80718H32.5271V0.00598145H41.224C45.3337 0.00598145 49.2198 1.9873 51.6071 5.31352L56.9376 12.7164L64.9999 19.489V26.6157C64.9999 29.3055 62.7939 31.497 60.0864 31.497Z" fill="#FAFAFA"/>
<path d="M53.5894 14.2354H35.8088V3.74646H41.4355C44.2096 3.74646 46.8386 5.07333 48.4764 7.29481L53.5894 14.2354ZM37.6219 12.4342H50.0115L47.0139 8.35753C45.7205 6.59836 43.6354 5.54766 41.4416 5.54766H37.628V12.4342H37.6219Z" fill="#FAFAFA"/>
<path d="M20.4579 4.64709H18.6448V13.3349H20.4579V4.64709Z" fill="#FAFAFA"/>
</svg>
