<svg width="140" height="48" viewBox="0 0 140 48" fill="none" xmlns="http://www.w3.org/2000/svg">
<path d="M17.5831 10.2203C17.5831 10.3185 17.534 10.3675 17.4359 10.3675H12.2102C12.1709 10.3675 12.1513 10.3872 12.1513 10.4264V13.5913C12.1513 13.6305 12.1709 13.6502 12.2102 13.6502H15.8019C15.9001 13.6502 15.9492 13.6992 15.9492 13.7974V14.7247C15.9492 14.8229 15.9001 14.8719 15.8019 14.8719H12.2102C12.1709 14.8719 12.1513 14.8916 12.1513 14.9308V18.1693C12.1513 18.2085 12.1709 18.2282 12.2102 18.2282H17.4359C17.534 18.2282 17.5831 18.2772 17.5831 18.3754V19.3027C17.5831 19.4009 17.534 19.45 17.4359 19.45H10.8854C10.7872 19.45 10.7382 19.4009 10.7382 19.3027V9.29295C10.7382 9.19481 10.7872 9.14575 10.8854 9.14575H17.4359C17.534 9.14575 17.5831 9.19481 17.5831 9.29295V10.2203ZM18.9618 19.45C18.9029 19.45 18.8636 19.4352 18.844 19.4058C18.8244 19.3665 18.8293 19.3224 18.8587 19.2733L21.8911 14.342C21.9107 14.3126 21.9107 14.2831 21.8911 14.2537L18.8587 9.32239C18.8391 9.28314 18.8293 9.2537 18.8293 9.23407C18.8293 9.17519 18.8734 9.14575 18.9618 9.14575H20.1835C20.2522 9.14575 20.3111 9.18009 20.3602 9.24879L22.7301 13.1497C22.74 13.1595 22.7547 13.1644 22.7743 13.1644C22.7939 13.1644 22.8087 13.1595 22.8185 13.1497L25.1884 9.24879C25.2375 9.18009 25.2964 9.14575 25.3651 9.14575H26.5721C26.631 9.14575 26.6703 9.16537 26.6899 9.20463C26.7095 9.23407 26.7046 9.27332 26.6752 9.32239L23.6575 14.2684C23.6477 14.2978 23.6477 14.3273 23.6575 14.3567L26.6752 19.2733C26.6948 19.3126 26.7046 19.342 26.7046 19.3616C26.7046 19.4205 26.6605 19.45 26.5721 19.45H25.3651C25.2964 19.45 25.2375 19.4156 25.1884 19.3469L22.8185 15.4608C22.8087 15.4411 22.7939 15.4313 22.7743 15.4313C22.7547 15.4313 22.74 15.4411 22.7301 15.4608L20.3602 19.3469C20.3111 19.4156 20.2522 19.45 20.1835 19.45H18.9618ZM32.3669 9.13103C32.9655 9.13103 33.4905 9.2586 33.9419 9.51376C34.4032 9.75909 34.7565 10.1075 35.0018 10.5589C35.257 11.0103 35.3845 11.5304 35.3845 12.1192C35.3845 12.7081 35.257 13.2233 35.0018 13.6649C34.7467 14.1065 34.3836 14.45 33.9125 14.6953C33.4513 14.9406 32.9164 15.0633 32.308 15.0633H29.7172C29.678 15.0633 29.6583 15.0829 29.6583 15.1222V19.3027C29.6583 19.4009 29.6093 19.45 29.5111 19.45H28.3924C28.2943 19.45 28.2452 19.4009 28.2452 19.3027V9.27823C28.2452 9.18009 28.2943 9.13103 28.3924 9.13103H32.3669ZM32.1755 13.9151C32.7153 13.9151 33.1471 13.7532 33.4709 13.4294C33.8046 13.1055 33.9714 12.6786 33.9714 12.1487C33.9714 11.6089 33.8046 11.1771 33.4709 10.8533C33.1471 10.5196 32.7153 10.3528 32.1755 10.3528H29.7172C29.678 10.3528 29.6583 10.3724 29.6583 10.4117V13.8562C29.6583 13.8955 29.678 13.9151 29.7172 13.9151H32.1755ZM40.4155 19.5824C39.6992 19.5824 39.0662 19.4352 38.5166 19.1408C37.9671 18.8464 37.5402 18.4343 37.236 17.9043C36.9317 17.3646 36.7796 16.7463 36.7796 16.0496V12.5461C36.7796 11.8494 36.9317 11.236 37.236 10.7061C37.5402 10.1762 37.9671 9.764 38.5166 9.46959C39.0662 9.17519 39.6992 9.02799 40.4155 9.02799C41.1417 9.02799 41.7796 9.17519 42.3292 9.46959C42.8787 9.764 43.3056 10.1762 43.6098 10.7061C43.9141 11.236 44.0662 11.8494 44.0662 12.5461V16.0496C44.0662 16.7463 43.9141 17.3646 43.6098 17.9043C43.3056 18.4343 42.8787 18.8464 42.3292 19.1408C41.7796 19.4352 41.1417 19.5824 40.4155 19.5824ZM40.4155 18.3606C41.0829 18.3606 41.6226 18.1546 42.0348 17.7424C42.4469 17.3302 42.653 16.7856 42.653 16.1084V12.5314C42.653 11.8445 42.4469 11.2949 42.0348 10.8827C41.6226 10.4608 41.0829 10.2498 40.4155 10.2498C39.7482 10.2498 39.2085 10.4608 38.7963 10.8827C38.394 11.2949 38.1928 11.8445 38.1928 12.5314V16.1084C38.1928 16.7856 38.394 17.3302 38.7963 17.7424C39.2085 18.1546 39.7482 18.3606 40.4155 18.3606ZM52.0898 19.45C52.0113 19.45 51.9573 19.4156 51.9278 19.3469L49.867 14.9455C49.8572 14.9161 49.8376 14.9014 49.8081 14.9014H47.6884C47.6491 14.9014 47.6295 14.921 47.6295 14.9603V19.3027C47.6295 19.4009 47.5804 19.45 47.4823 19.45H46.3636C46.2654 19.45 46.2164 19.4009 46.2164 19.3027V9.29295C46.2164 9.19481 46.2654 9.14575 46.3636 9.14575H50.3233C50.9121 9.14575 51.4274 9.26842 51.869 9.51376C52.3204 9.75909 52.6688 10.1026 52.9141 10.5442C53.1594 10.9858 53.2821 11.4961 53.2821 12.0751C53.2821 12.762 53.1006 13.3459 52.7375 13.8268C52.3842 14.2978 51.8886 14.6168 51.2507 14.7836C51.2115 14.8032 51.2016 14.8278 51.2213 14.8572L53.3557 19.2733C53.3655 19.2929 53.3704 19.3175 53.3704 19.3469C53.3704 19.4156 53.3312 19.45 53.2527 19.45H52.0898ZM47.6884 10.3675C47.6491 10.3675 47.6295 10.3872 47.6295 10.4264V13.7238C47.6295 13.763 47.6491 13.7826 47.6884 13.7826H50.1467C50.6668 13.7826 51.0839 13.6305 51.3979 13.3263C51.7119 13.0123 51.869 12.6001 51.869 12.0898C51.869 11.5697 51.7119 11.1526 51.3979 10.8386C51.0839 10.5245 50.6668 10.3675 50.1467 10.3675H47.6884ZM61.7802 9.14575C61.8783 9.14575 61.9274 9.19481 61.9274 9.29295V10.235C61.9274 10.3332 61.8783 10.3823 61.7802 10.3823H58.9539C58.9146 10.3823 58.895 10.4019 58.895 10.4411V19.3027C58.895 19.4009 58.846 19.45 58.7478 19.45H57.6291C57.5309 19.45 57.4819 19.4009 57.4819 19.3027V10.4411C57.4819 10.4019 57.4622 10.3823 57.423 10.3823H54.7292C54.631 10.3823 54.582 10.3332 54.582 10.235V9.29295C54.582 9.19481 54.631 9.14575 54.7292 9.14575H61.7802ZM25.3238 29.2949C25.3238 29.3636 25.3042 29.4176 25.265 29.4568C25.2257 29.4961 25.1717 29.5157 25.103 29.5157H20.7017C20.6526 29.5157 20.6281 29.5402 20.6281 29.5893V30.973C20.6281 31.0221 20.6526 31.0466 20.7017 31.0466H23.4249C23.4936 31.0466 23.5476 31.0663 23.5869 31.1055C23.6261 31.1448 23.6457 31.1987 23.6457 31.2674V33.1811C23.6457 33.2498 23.6261 33.3037 23.5869 33.343C23.5476 33.3822 23.4936 33.4019 23.4249 33.4019H20.7017C20.6526 33.4019 20.6281 33.4264 20.6281 33.4755V35.0064C20.6281 35.0555 20.6526 35.08 20.7017 35.08H25.103C25.1717 35.08 25.2257 35.0996 25.265 35.1389C25.3042 35.1781 25.3238 35.2321 25.3238 35.3008V37.2291C25.3238 37.2978 25.3042 37.3518 25.265 37.3911C25.2257 37.4303 25.1717 37.45 25.103 37.45H18.0815C18.0128 37.45 17.9588 37.4303 17.9195 37.3911C17.8803 37.3518 17.8607 37.2978 17.8607 37.2291V27.3666C17.8607 27.2979 17.8803 27.2439 17.9195 27.2046C17.9588 27.1654 18.0128 27.1457 18.0815 27.1457H25.103C25.1717 27.1457 25.2257 27.1654 25.265 27.2046C25.3042 27.2439 25.3238 27.2979 25.3238 27.3666V29.2949ZM26.2411 37.45C26.1822 37.45 26.1332 37.4401 26.0939 37.4205C26.0645 37.3911 26.0497 37.3567 26.0497 37.3175C26.0497 37.2684 26.0645 37.2242 26.0939 37.185L28.773 32.342C28.7926 32.3126 28.7926 32.2831 28.773 32.2537L26.0939 27.4107C26.0645 27.3616 26.0497 27.3175 26.0497 27.2782C26.0497 27.239 26.0645 27.2095 26.0939 27.1899C26.1332 27.1605 26.1822 27.1457 26.2411 27.1457H28.7877C28.9153 27.1457 29.0036 27.1997 29.0527 27.3077L30.4953 30.0898C30.5247 30.1291 30.5542 30.1291 30.5836 30.0898L32.0262 27.3077C32.0851 27.1997 32.1734 27.1457 32.2911 27.1457H34.823C34.8819 27.1457 34.9261 27.1605 34.9555 27.1899C34.9948 27.2095 35.0144 27.239 35.0144 27.2782C35.0144 27.3175 34.9997 27.3616 34.9702 27.4107L32.3059 32.2537C32.2961 32.2831 32.2961 32.3126 32.3059 32.342L34.9702 37.185C34.9997 37.2242 35.0144 37.2684 35.0144 37.3175C35.0144 37.3567 34.9948 37.3911 34.9555 37.4205C34.9261 37.4401 34.8819 37.45 34.823 37.45H32.3059C32.1881 37.45 32.0998 37.396 32.0409 37.288L30.5836 34.5206C30.5542 34.4715 30.5247 34.4715 30.4953 34.5206L29.038 37.288C28.9889 37.396 28.9006 37.45 28.773 37.45H26.2411ZM39.3001 37.5677C38.4954 37.5677 37.7839 37.4107 37.1656 37.0967C36.5572 36.7826 36.0812 36.341 35.7378 35.7718C35.4041 35.1928 35.2373 34.5255 35.2373 33.7699V30.7964C35.2373 30.0506 35.4041 29.393 35.7378 28.8239C36.0812 28.2547 36.5572 27.8131 37.1656 27.499C37.7839 27.185 38.4954 27.028 39.3001 27.028C40.1048 27.028 40.8114 27.1752 41.4198 27.4696C42.038 27.764 42.514 28.1811 42.8477 28.7208C43.1911 29.2507 43.3629 29.869 43.3629 30.5756C43.3629 30.6639 43.2893 30.7179 43.1421 30.7375L40.8163 30.8847H40.7721C40.6543 30.8847 40.5955 30.8307 40.5955 30.7228C40.5955 30.3204 40.4777 30.0015 40.2422 29.766C40.0066 29.5206 39.6926 29.398 39.3001 29.398C38.9075 29.398 38.5935 29.5206 38.358 29.766C38.1225 30.0015 38.0047 30.3204 38.0047 30.7228V33.8876C38.0047 34.2802 38.1225 34.5991 38.358 34.8445C38.5935 35.08 38.9075 35.1977 39.3001 35.1977C39.6926 35.1977 40.0066 35.08 40.2422 34.8445C40.4777 34.5991 40.5955 34.2802 40.5955 33.8876C40.5955 33.8288 40.6151 33.7846 40.6543 33.7552C40.6936 33.7257 40.7476 33.7159 40.8163 33.7257L43.1421 33.8435C43.2893 33.8533 43.3629 33.9024 43.3629 33.9907C43.3629 34.6973 43.1911 35.3204 42.8477 35.8602C42.514 36.3999 42.038 36.8219 41.4198 37.1261C40.8114 37.4205 40.1048 37.5677 39.3001 37.5677ZM51.8031 29.2949C51.8031 29.3636 51.7835 29.4176 51.7442 29.4568C51.705 29.4961 51.651 29.5157 51.5823 29.5157H47.1809C47.1319 29.5157 47.1073 29.5402 47.1073 29.5893V30.973C47.1073 31.0221 47.1319 31.0466 47.1809 31.0466H49.9042C49.9729 31.0466 50.0269 31.0663 50.0661 31.1055C50.1054 31.1448 50.125 31.1987 50.125 31.2674V33.1811C50.125 33.2498 50.1054 33.3037 50.0661 33.343C50.0269 33.3822 49.9729 33.4019 49.9042 33.4019H47.1809C47.1319 33.4019 47.1073 33.4264 47.1073 33.4755V35.0064C47.1073 35.0555 47.1319 35.08 47.1809 35.08H51.5823C51.651 35.08 51.705 35.0996 51.7442 35.1389C51.7835 35.1781 51.8031 35.2321 51.8031 35.3008V37.2291C51.8031 37.2978 51.7835 37.3518 51.7442 37.3911C51.705 37.4303 51.651 37.45 51.5823 37.45H44.5607C44.492 37.45 44.4381 37.4303 44.3988 37.3911C44.3596 37.3518 44.3399 37.2978 44.3399 37.2291V27.3666C44.3399 27.2979 44.3596 27.2439 44.3988 27.2046C44.4381 27.1654 44.492 27.1457 44.5607 27.1457H51.5823C51.651 27.1457 51.705 27.1654 51.7442 27.2046C51.7835 27.2439 51.8031 27.2979 51.8031 27.3666V29.2949ZM52.9559 37.45C52.8872 37.45 52.8332 37.4303 52.794 37.3911C52.7547 37.3518 52.7351 37.2978 52.7351 37.2291V27.3666C52.7351 27.2979 52.7547 27.2439 52.794 27.2046C52.8332 27.1654 52.8872 27.1457 52.9559 27.1457H55.2817C55.3504 27.1457 55.4044 27.1654 55.4436 27.2046C55.4829 27.2439 55.5025 27.2979 55.5025 27.3666V35.0064C55.5025 35.0555 55.527 35.08 55.5761 35.08H60.1247C60.1934 35.08 60.2474 35.0996 60.2866 35.1389C60.3259 35.1781 60.3455 35.2321 60.3455 35.3008V37.2291C60.3455 37.2978 60.3259 37.3518 60.2866 37.3911C60.2474 37.4303 60.1934 37.45 60.1247 37.45H52.9559Z" fill="#454545"/>
<path d="M4.49869 1H135.501C137.431 1 139 4.0045 139 7.6997V40.3003C139 43.9955 137.431 47 135.501 47H4.49869C2.569 47 1 43.9955 1 40.3003V7.6997C1 4.0045 2.569 1 4.49869 1Z" stroke="#7A7A7A" stroke-width="0.402187" stroke-miterlimit="10"/>
<path d="M130.95 28.4469C130.315 28.4469 129.8 28.9618 129.8 29.5969V36.4969C129.8 37.1321 129.285 37.6469 128.65 37.6469H105.65C105.015 37.6469 104.5 37.1321 104.5 36.4969V29.5969C104.5 28.9618 103.985 28.4469 103.35 28.4469C102.715 28.4469 102.2 28.9618 102.2 29.5969V36.4969C102.2 38.4023 103.745 39.9469 105.65 39.9469H128.65C130.556 39.9469 132.1 38.4023 132.1 36.4969V29.5969C132.1 28.9618 131.585 28.4469 130.95 28.4469Z" fill="#0502D3"/>
<path d="M123.69 27.6342C123.245 27.2039 122.538 27.2039 122.093 27.6342L118.303 31.4212V8.89734C118.303 8.26219 117.788 7.74731 117.153 7.74731C116.518 7.74731 116.003 8.26219 116.003 8.89734V31.4212L112.216 27.6342C111.759 27.193 111.031 27.2057 110.59 27.6625C110.16 28.1081 110.16 28.8147 110.59 29.2603L116.34 35.0103C116.789 35.4599 117.517 35.4609 117.966 35.0124C117.967 35.0117 117.968 35.011 117.969 35.0103L123.719 29.2603C124.16 28.8035 124.147 28.0755 123.69 27.6342Z" fill="#0502D3"/>
<path fill-rule="evenodd" clip-rule="evenodd" d="M75.3258 24.4935H95.2995V35.4022H81.7335V34.4369H94.3374V25.4589H76.2879V34.4369H79.1935V35.4022H75.3258V24.4935Z" fill="#0502D3"/>
<path fill-rule="evenodd" clip-rule="evenodd" d="M70.0001 7.90002H87.3292L92.5857 13.4727V22.6758H91.6238V13.8565L86.915 8.86437H70.962V38.7399H91.6238V36.9693H92.5857V39.7043H70.0001V7.90002Z" fill="#0502D3"/>
<path fill-rule="evenodd" clip-rule="evenodd" d="M86.6965 8.41235H87.6625V13.3365H92.1253V14.302H86.6965V8.41235Z" fill="#0502D3"/>
<path fill-rule="evenodd" clip-rule="evenodd" d="M74.6091 15.9408H87.9761V23.0084H74.6091V15.9408ZM75.5722 16.9011V22.0481H87.0131V16.9011H75.5722Z" fill="#0502D3"/>
<path fill-rule="evenodd" clip-rule="evenodd" d="M78.553 22.4961V16.5552H79.5261V22.4961H78.553Z" fill="#0502D3"/>
<path fill-rule="evenodd" clip-rule="evenodd" d="M79.1169 26.8635C79.3337 26.7337 79.6146 26.8042 79.7444 27.021L83.0752 32.5845C83.2049 32.8013 83.1344 33.0822 82.9176 33.212C82.7008 33.3418 82.4199 33.2713 82.2901 33.0545L78.9593 27.4911C78.8295 27.2743 78.9001 26.9933 79.1169 26.8635Z" fill="#0502D3"/>
<path fill-rule="evenodd" clip-rule="evenodd" d="M82.8159 26.8047C83.0367 26.9276 83.1162 27.2062 82.9933 27.427L79.8406 33.0932C79.7177 33.314 79.4392 33.3934 79.2184 33.2705C78.9976 33.1477 78.9181 32.8691 79.041 32.6483L82.1937 26.9821C82.3166 26.7613 82.5951 26.6819 82.8159 26.8047Z" fill="#0502D3"/>
<path fill-rule="evenodd" clip-rule="evenodd" d="M84.6927 26.7985C84.9454 26.7985 85.1503 27.0033 85.1503 27.256V32.3619H87.0352C87.2879 32.3619 87.4928 32.5667 87.4928 32.8194C87.4928 33.0721 87.2879 33.2769 87.0352 33.2769H84.6927C84.4401 33.2769 84.2352 33.0721 84.2352 32.8194V27.256C84.2352 27.0033 84.4401 26.7985 84.6927 26.7985Z" fill="#0502D3"/>
<path fill-rule="evenodd" clip-rule="evenodd" d="M88.1884 27.256C88.1884 27.0033 88.3932 26.7985 88.6459 26.7985H91.574C91.8267 26.7985 92.0315 27.0033 92.0315 27.256C92.0315 27.5087 91.8267 27.7135 91.574 27.7135H89.1034V29.2874H91.574C91.8267 29.2874 92.0315 29.4922 92.0315 29.7449V32.8194C92.0315 33.0721 91.8267 33.2769 91.574 33.2769H88.6459C88.3932 33.2769 88.1884 33.0721 88.1884 32.8194C88.1884 32.5667 88.3932 32.3619 88.6459 32.3619H91.1165V30.2024H88.6459C88.3932 30.2024 88.1884 29.9976 88.1884 29.7449V27.256Z" fill="#0502D3"/>
<path fill-rule="evenodd" clip-rule="evenodd" d="M87.6689 19.8841H74.9165V18.911H87.6689V19.8841Z" fill="#0502D3"/>
<path fill-rule="evenodd" clip-rule="evenodd" d="M83.0601 22.5473V16.504H84.0331V22.5473H83.0601Z" fill="#0502D3"/>
</svg>
