<svg width="118" height="118" viewBox="0 0 118 118" fill="none" xmlns="http://www.w3.org/2000/svg">
<line x1="54.8709" y1="63.0228" x2="77.8709" y2="40.0228" stroke="#424242" stroke-width="4" stroke-linejoin="round"/>
<path d="M80.4695 55.821C80.621 55.6695 80.7157 55.4233 80.7157 55.196L80.7157 37.5436C80.7157 37.3163 80.621 37.07 80.4695 36.9185C80.318 36.767 80.0718 36.6723 79.8445 36.6723L62.1921 36.6723C61.9648 36.6723 61.7185 36.767 61.567 36.9185C61.4155 37.07 61.3208 37.3163 61.3208 37.5436L61.3208 39.4376C61.3208 39.6649 61.4155 39.9111 61.567 40.0626C61.7185 40.2141 61.9648 40.3088 62.1921 40.3088L77.0792 40.3088L77.0792 55.196C77.0792 55.4233 77.1739 55.6695 77.3254 55.821C77.4959 55.9915 77.7231 56.0672 77.9504 56.0672L79.8445 56.0672C80.0718 56.0672 80.318 55.9725 80.4695 55.821Z" fill="#424242"/>
</svg>
