<svg xmlns="http://www.w3.org/2000/svg" viewBox="0 0 57.5 35.3"><defs><style>.cls-1{fill:none;stroke:#0502d3;stroke-linecap:round;stroke-miterlimit:10;stroke-width:1.5px;}</style></defs><g id="Capa_2" data-name="Capa 2"><g id="Capa_1-2" data-name="Capa 1"><path class="cls-1" d="M9.39,34.55A8.76,8.76,0,0,0,9.39,17a8.76,8.76,0,0,0,0,17.51Z"/><path class="cls-1" d="M9.39,29.39a3.6,3.6,0,1,0-3.54-3.6A3.57,3.57,0,0,0,9.39,29.39Z"/><path class="cls-1" d="M48.11,34.55a8.76,8.76,0,1,0-8.65-8.76A8.7,8.7,0,0,0,48.11,34.55Z"/><path class="cls-1" d="M48.11,29.39a3.6,3.6,0,1,0-3.55-3.6A3.57,3.57,0,0,0,48.11,29.39Z"/><path class="cls-1" d="M4.34,8.47H25.86L31.35,5h6.31"/><path class="cls-1" d="M31.06.75h4.66l10.54,21.6"/><path class="cls-1" d="M42.23,9.31h4.61"/><path class="cls-1" d="M10.17,8.47a13.14,13.14,0,0,0,7.38,6,13,13,0,0,0,9.62-1.38,7.25,7.25,0,0,0,7.92,1.62C38.39,13.49,40,9.51,40,9.51"/><path class="cls-1" d="M12.11,23.29A13.37,13.37,0,0,0,19,20.23a12.32,12.32,0,0,0,3.4-5.41"/><path class="cls-1" d="M12.89,26.48s5.49-2,9.62-1.47,5.49,2.56,8.6.83c2.57-1.42,2.42-5.06,2.42-10.58"/><path class="cls-1" d="M19.93,19.35l7.53,1.43-.29-7.63"/></g></g></svg>