<svg xmlns="http://www.w3.org/2000/svg" viewBox="0 0 56 31.22"><defs><style>.cls-1{fill:#0502d3;}</style></defs><g id="Capa_2" data-name="Capa 2"><g id="Capa_1-2" data-name="Capa 1"><path class="cls-1" d="M14.24,31.22a4.84,4.84,0,1,1,4.83-4.84A4.84,4.84,0,0,1,14.24,31.22Zm0-8.11a3.28,3.28,0,1,0,3.27,3.27A3.28,3.28,0,0,0,14.24,23.11Z"/><path class="cls-1" d="M14.24,27.88a1.58,1.58,0,1,0-1.58-1.58A1.57,1.57,0,0,0,14.24,27.88Z"/><path class="cls-1" d="M42.87,31.22a4.84,4.84,0,1,1,4.84-4.84A4.84,4.84,0,0,1,42.87,31.22Zm0-8.11a3.28,3.28,0,1,0,3.28,3.27A3.28,3.28,0,0,0,42.87,23.11Z"/><path class="cls-1" d="M42.87,27.88A1.58,1.58,0,1,0,41.3,26.3,1.58,1.58,0,0,0,42.87,27.88Z"/><path class="cls-1" d="M7.89,27.07H4.23A4.25,4.25,0,0,1,0,22.83V5.39A5.4,5.4,0,0,1,5.39,0H30V1.56H5.39A3.83,3.83,0,0,0,1.57,5.39V22.83A2.66,2.66,0,0,0,4.24,25.5H7.9v1.57Z"/><path class="cls-1" d="M37.09,15.16H31.63v1.56h5.46Z"/><path class="cls-1" d="M28.43,15.16H23v1.56h5.46Z"/><path class="cls-1" d="M36,25.75H20.65v1.57H36Z"/><path class="cls-1" d="M55.22,21.77H50.51V16.69h1.56v3.52h3.15Z"/><path class="cls-1" d="M29.21,12.35H4.48v-6A3.08,3.08,0,0,1,7.56,3.25H29.21ZM6,10.78H27.65v-6H7.56A1.52,1.52,0,0,0,6,6.33v4.45Z"/><path class="cls-1" d="M51.77,27.32H49.21V25.75h2.56a2.67,2.67,0,0,0,2.67-2.67V17.63L47.84,12,43.19,5.51a9.46,9.46,0,0,0-7.67-3.94H28V0h7.5a11,11,0,0,1,8.94,4.6L49.05,11l7,5.87v6.18A4.25,4.25,0,0,1,51.77,27.32Z"/><path class="cls-1" d="M46.17,12.35H30.85V3.25H35.7a7.52,7.52,0,0,1,6.06,3.08ZM32.41,10.78H43.09L40.5,7.25a6,6,0,0,0-4.8-2.44H32.42v6Z"/><path class="cls-1" d="M17.63,4H16.06v7.53h1.57Z"/></g></g></svg>