<svg width="41" height="41" viewBox="0 0 41 41" fill="none" xmlns="http://www.w3.org/2000/svg">
<path d="M37.6062 15.0523H36.5024C36.0872 15.053 35.7158 14.794 35.5732 14.404C35.4507 14.0829 35.3193 13.7688 35.1778 13.4577C35.0019 13.0794 35.0822 12.6315 35.3785 12.3378L36.1652 11.5501C37.3331 10.3719 37.331 8.47179 36.1602 7.29633L33.3244 4.46049C32.1474 3.29042 30.2465 3.29042 29.0696 4.46049L28.2828 5.24622C27.9886 5.54137 27.5414 5.62152 27.163 5.44691C26.8519 5.30542 26.5378 5.17396 26.2157 5.04552C25.8237 4.9039 25.5629 4.53111 25.5644 4.11429V3.01045C25.5644 1.3478 24.2166 0 22.554 0H18.54C16.8774 0 15.5296 1.3478 15.5296 3.01045V4.11429C15.5303 4.52948 15.2713 4.90089 14.8813 5.04351C14.5602 5.16594 14.2461 5.29739 13.935 5.43888C13.5566 5.61387 13.1093 5.53371 12.8151 5.23819L12.0274 4.45146C10.8506 3.28215 8.95047 3.28215 7.77363 4.45146L4.93778 7.29633C3.76772 8.47329 3.76772 10.3741 4.93778 11.5511L5.72351 12.3378C6.01979 12.6315 6.10007 13.0794 5.92421 13.4577C5.78272 13.7688 5.65126 14.0829 5.52783 14.405C5.38421 14.7973 5.00928 15.0565 4.59158 15.0523H3.48775C1.8251 15.0523 0.477295 16.4001 0.477295 18.0627V22.0767C0.477295 23.7393 1.8251 25.0871 3.48775 25.0871H4.59158C5.00677 25.0864 5.37819 25.3454 5.52081 25.7354C5.64323 26.0565 5.77469 26.3706 5.91618 26.6816C6.09204 27.06 6.01176 27.5079 5.71548 27.8015L4.92875 28.5893C3.75944 29.7661 3.75944 31.6662 4.92875 32.843L7.7646 35.6789C8.94156 36.8489 10.8424 36.8489 12.0194 35.6789L12.8061 34.8932C13.1004 34.598 13.5476 34.5178 13.926 34.6925C14.2371 34.8339 14.5512 34.9654 14.8733 35.0938C15.2673 35.2338 15.5303 35.607 15.5296 36.0251V37.1289C15.5296 38.7916 16.8774 40.1394 18.54 40.1394H22.554C24.2166 40.1394 25.5644 38.7916 25.5644 37.1289V36.0251C25.5637 35.6099 25.8227 35.2385 26.2127 35.0959C26.5338 34.9734 26.8479 34.842 27.1589 34.7005C27.5374 34.5255 27.9847 34.6057 28.2788 34.9012L29.0666 35.6879C30.245 36.8553 32.1446 36.8531 33.3203 35.6829L36.1562 32.847C37.3262 31.6701 37.3262 29.7692 36.1562 28.5923L35.3705 27.8055C35.0742 27.5119 34.9939 27.064 35.1698 26.6857C35.3112 26.3746 35.4427 26.0605 35.5712 25.7384C35.7128 25.3464 36.0856 25.0856 36.5024 25.0871H37.6062C39.2689 25.0871 40.6167 23.7393 40.6167 22.0767V18.0627C40.6167 16.4001 39.2689 15.0523 37.6062 15.0523ZM38.6097 22.0767C38.6097 22.6308 38.1604 23.0801 37.6062 23.0801H36.5024C35.2549 23.0848 34.1385 23.8558 33.6926 25.0209C33.5863 25.3018 33.4712 25.5784 33.3474 25.8508C32.8315 26.9897 33.0708 28.3289 33.9495 29.2184L34.7342 30.0042C35.1264 30.3958 35.1267 31.0312 34.735 31.4234C34.7347 31.4236 34.7345 31.4239 34.7342 31.4241L31.8984 34.2599C31.5065 34.6517 30.8713 34.6517 30.4795 34.2599L29.6927 33.4742C28.8035 32.5948 27.4639 32.3553 26.325 32.8721C26.0531 32.9956 25.7761 33.111 25.4972 33.2173C24.333 33.6631 23.5625 34.7785 23.5574 36.0251V37.1289C23.5574 37.6831 23.1081 38.1324 22.554 38.1324H18.54C17.9858 38.1324 17.5365 37.6831 17.5365 37.1289V36.0251C17.5319 34.7776 16.7608 33.6612 15.5958 33.2153C15.3148 33.109 15.0382 32.9939 14.7659 32.8701C13.627 32.3545 12.2879 32.5939 11.3982 33.4722L10.6125 34.2569C10.2209 34.6491 9.58542 34.6494 9.19331 34.2577C9.19306 34.2574 9.19281 34.2572 9.19256 34.2569L6.35671 31.4241C5.96497 31.0322 5.96497 30.397 6.35671 30.0052L7.14244 29.2184C8.02111 28.3289 8.26045 26.9897 7.74453 25.8508C7.6211 25.5788 7.5057 25.3018 7.39933 25.0229C6.95454 23.8575 5.83891 23.0857 4.59158 23.0801H3.48775C2.93357 23.0801 2.48426 22.6308 2.48426 22.0767V18.0627C2.48426 17.5085 2.93357 17.0592 3.48775 17.0592H4.59158C5.83904 17.0546 6.95541 16.2835 7.40134 15.1185C7.50771 14.8375 7.62273 14.5609 7.74654 14.2886C8.26245 13.1497 8.023 11.8105 7.14444 10.9209L6.35571 10.1352C5.96359 9.74358 5.96322 9.10812 6.35495 8.71601C6.35521 8.71576 6.35546 8.71551 6.35571 8.71526L9.19155 5.87941C9.58341 5.48768 10.2186 5.48768 10.6105 5.87941L11.3972 6.66514C12.2864 7.54457 13.6261 7.78403 14.7649 7.26723C15.0368 7.1438 15.3138 7.0284 15.5928 6.92203C16.7586 6.47762 17.5309 5.36187 17.5365 4.11429V3.01045C17.5365 2.45628 17.9858 2.00697 18.54 2.00697H22.554C23.1081 2.00697 23.5574 2.45628 23.5574 3.01045V4.11429C23.5621 5.36174 24.3331 6.47812 25.4982 6.92404C25.7792 7.03041 26.0557 7.14543 26.3281 7.26924C27.4669 7.78603 28.8065 7.54658 29.6957 6.66715L30.4815 5.88242C30.8748 5.49332 31.508 5.49332 31.9014 5.88242L34.7373 8.71827C35.129 9.11013 35.129 9.74534 34.7373 10.1372L33.9515 10.9239C33.073 11.8135 32.8335 13.1527 33.3494 14.2916C33.4729 14.5636 33.5883 14.8405 33.6946 15.1195C34.1404 16.2837 35.2558 17.0542 36.5024 17.0592H37.6062C38.1604 17.0592 38.6097 17.5085 38.6097 18.0627V22.0767Z" fill="#424242"/>
<path d="M29.559 19.6671C29.5489 19.4263 29.5319 19.1864 29.5028 18.9476C29.4707 18.6907 29.4325 18.4358 29.3793 18.186C29.3442 18.0224 29.2981 17.8608 29.2539 17.6983C29.1977 17.4915 29.1345 17.2878 29.0642 17.0871C29.0151 16.9477 28.9639 16.8092 28.9117 16.6717C28.7825 16.3503 28.6348 16.0366 28.4692 15.7324C28.4561 15.7094 28.4481 15.6843 28.4351 15.6612C28.174 15.1966 27.8717 14.7562 27.5319 14.3456C27.5028 14.3095 27.4697 14.2754 27.4396 14.2402C27.3011 14.0767 27.1586 13.9181 27.0091 13.7666C26.9308 13.6853 26.8485 13.6091 26.7663 13.5308C26.6659 13.4375 26.5656 13.3451 26.4652 13.2568C26.3434 13.1511 26.2194 13.0487 26.0929 12.9498L25.9284 12.8273C24.3756 11.6643 22.4877 11.0361 20.5477 11.0371C20.4473 11.0371 20.347 11.0522 20.2466 11.0562C20.0329 11.0622 19.8181 11.0742 19.6024 11.0963C19.489 11.1084 19.3746 11.1214 19.2612 11.1375C18.9341 11.1805 18.6094 11.2412 18.2888 11.3191C13.4569 12.5677 10.5521 17.4971 11.8007 22.329C12.6235 25.5131 15.1112 27.9987 18.2959 28.8189C18.3119 28.8189 18.329 28.8239 18.346 28.828C18.6926 28.9144 19.0437 28.9815 19.3977 29.0287C19.6315 29.0578 19.8653 29.0638 20.1001 29.0748C20.2567 29.0828 20.4012 29.1059 20.5647 29.1059C20.8507 29.1059 21.1478 29.0869 21.4508 29.0567C21.4829 29.0567 21.515 29.0477 21.5512 29.0437C21.795 29.0166 22.0419 28.9805 22.2937 28.9303C22.3941 28.9112 22.4874 28.8862 22.5837 28.8641C22.7604 28.8229 22.936 28.7798 23.1166 28.7266C23.2571 28.6845 23.3936 28.6353 23.531 28.5871C23.6685 28.5389 23.811 28.4868 23.9535 28.4326C24.096 28.3784 24.2154 28.3162 24.3449 28.256C24.5134 28.1787 24.681 28.1024 24.8466 28.0121H24.8526C25.7891 27.5107 26.6541 26.8861 27.4245 26.1547C27.6326 25.9605 27.8137 25.739 27.9624 25.4964C28.7456 24.2408 29.2602 22.8365 29.4737 21.372C29.5018 21.1784 29.5268 20.9847 29.5419 20.787C29.5559 20.6054 29.566 20.4247 29.57 20.2441C29.57 20.1869 29.578 20.1327 29.578 20.0755C29.579 19.934 29.565 19.8036 29.559 19.6671ZM27.559 20.3244C27.559 20.4077 27.552 20.491 27.547 20.5733C27.5289 20.8161 27.4978 21.0589 27.4567 21.3028C27.0816 23.3892 25.7862 25.1955 23.9304 26.2199C23.806 26.2851 23.6836 26.3463 23.5611 26.4025L23.4778 26.4427C22.8948 26.7073 22.2794 26.8936 21.6475 26.9966C21.6033 27.0036 21.5582 27.0116 21.513 27.0177C21.3876 27.0357 21.2642 27.0508 21.1417 27.0618C20.9802 27.0759 20.8176 27.0839 20.652 27.0869C20.5818 27.0869 20.5125 27.0869 20.4423 27.0869C20.2049 27.0841 19.9678 27.0695 19.7318 27.0427L19.6114 27.0287C19.3355 26.9926 19.0618 26.941 18.7916 26.8742C15.0333 25.9122 12.7664 22.0856 13.7282 18.3273C14.3638 15.8439 16.3018 13.904 18.7845 13.2659V13.2649C19.3611 13.1195 19.9531 13.0452 20.5477 13.0441C20.8345 13.0457 21.1212 13.0652 21.4056 13.1023C21.4819 13.1113 21.5572 13.1254 21.6324 13.1364C21.8492 13.1705 22.0639 13.2137 22.2757 13.2679C22.3449 13.2859 22.4142 13.302 22.4824 13.3211C23.016 13.4751 23.5296 13.6913 24.0127 13.9653C24.09 14.0104 24.1652 14.0576 24.2415 14.1048C24.4 14.2051 24.5536 14.3055 24.7051 14.4199C24.7864 14.4791 24.8687 14.5373 24.9469 14.6005C25.1439 14.7578 25.3324 14.9252 25.5119 15.1022C25.5832 15.1745 25.6484 15.2538 25.7176 15.329C25.833 15.4545 25.9454 15.5829 26.0528 15.7184C26.127 15.8117 26.1983 15.908 26.2685 16.0054C26.3689 16.1499 26.4692 16.3004 26.5595 16.4529C26.6097 16.5362 26.6599 16.6175 26.7111 16.7028C26.8405 16.941 26.9558 17.1866 27.0563 17.4384C27.0964 17.5387 27.1305 17.6391 27.1667 17.7394C27.2319 17.9241 27.2881 18.1107 27.3372 18.2994C27.3623 18.3997 27.3904 18.489 27.4115 18.5864C27.4701 18.8575 27.5126 19.132 27.5389 19.4082C27.545 19.4815 27.545 19.5557 27.55 19.629C27.564 19.8598 27.568 20.0916 27.559 20.3244Z" fill="#424242"/>
</svg>
