<svg width="127" height="54" viewBox="0 0 127 54" fill="none" xmlns="http://www.w3.org/2000/svg">
<path fill-rule="evenodd" clip-rule="evenodd" d="M24.0323 12.6808C22.078 12.6808 20.4938 14.265 20.4938 16.2193C20.4938 18.1735 22.078 19.7578 24.0323 19.7578C25.9865 19.7578 27.5707 18.1735 27.5707 16.2193C27.5707 14.265 25.9865 12.6808 24.0323 12.6808ZM16.6831 16.2193C16.6831 12.1604 19.9734 8.87012 24.0323 8.87012C28.0911 8.87012 31.3814 12.1604 31.3814 16.2193C31.3814 20.2781 28.0911 23.5684 24.0323 23.5684C19.9734 23.5684 16.6831 20.2781 16.6831 16.2193Z" fill="#0502D3"/>
<path fill-rule="evenodd" clip-rule="evenodd" d="M24.0322 4.51508C17.5682 4.51508 12.328 9.75523 12.328 16.2193C12.328 22.6833 17.5682 27.9235 24.0322 27.9235C30.4963 27.9235 35.7364 22.6833 35.7364 16.2193C35.7364 9.75523 30.4963 4.51508 24.0322 4.51508ZM8.51733 16.2193C8.51733 7.65065 15.4636 0.704407 24.0322 0.704407C32.6008 0.704407 39.5471 7.65065 39.5471 16.2193C39.5471 24.7879 32.6008 31.7342 24.0322 31.7342C15.4636 31.7342 8.51733 24.7879 8.51733 16.2193Z" fill="#0502D3"/>
<path fill-rule="evenodd" clip-rule="evenodd" d="M102.968 12.6808C101.014 12.6808 99.4293 14.265 99.4293 16.2193C99.4293 18.1735 101.014 19.7578 102.968 19.7578C104.922 19.7578 106.506 18.1735 106.506 16.2193C106.506 14.265 104.922 12.6808 102.968 12.6808ZM95.6187 16.2193C95.6187 12.1604 98.909 8.87012 102.968 8.87012C107.027 8.87012 110.317 12.1604 110.317 16.2193C110.317 20.2781 107.027 23.5684 102.968 23.5684C98.909 23.5684 95.6187 20.2781 95.6187 16.2193Z" fill="#0502D3"/>
<path fill-rule="evenodd" clip-rule="evenodd" d="M102.968 4.51508C96.5037 4.51508 91.2636 9.75523 91.2636 16.2193C91.2636 22.6833 96.5037 27.9235 102.968 27.9235C109.432 27.9235 114.672 22.6833 114.672 16.2193C114.672 9.75523 109.432 4.51508 102.968 4.51508ZM87.4529 16.2193C87.4529 7.65065 94.3991 0.704407 102.968 0.704407C111.536 0.704407 118.483 7.65065 118.483 16.2193C118.483 24.7879 111.536 31.7342 102.968 31.7342C94.3991 31.7342 87.4529 24.7879 87.4529 16.2193Z" fill="#0502D3"/>
<path fill-rule="evenodd" clip-rule="evenodd" d="M83.5691 49.6988H122.367C119.895 40.842 112.098 34.4561 102.968 34.4561C93.8376 34.4561 86.0408 40.842 83.5691 49.6988ZM79.3143 51.2844C81.3005 39.6157 91.0786 30.6454 102.968 30.6454C114.857 30.6454 124.635 39.6157 126.621 51.2844L127 53.5095H78.9355L79.3143 51.2844Z" fill="#0502D3"/>
<path fill-rule="evenodd" clip-rule="evenodd" d="M4.63356 49.6988H43.4311C40.9594 40.842 33.1626 34.4561 24.0323 34.4561C14.9021 34.4561 7.10521 40.842 4.63356 49.6988ZM0.378748 51.2844C2.36499 39.6157 12.143 30.6454 24.0323 30.6454C35.9216 30.6454 45.6997 39.6157 47.6859 51.2844L48.0647 53.5095H0L0.378748 51.2844Z" fill="#0502D3"/>
<path fill-rule="evenodd" clip-rule="evenodd" d="M22.447 52.6631L11.5593 36.3316L14.73 34.2178L23.9245 48.0096L31.9132 34.3147L35.2048 36.2348L25.6781 52.5662L22.447 52.6631Z" fill="#0502D3"/>
<path fill-rule="evenodd" clip-rule="evenodd" d="M102.968 37.694L95.087 51.2041L91.8255 51.2539L85.0208 40.3663L88.2522 38.3466L93.385 46.5591L101.322 32.9526H104.614L112.551 46.5591L117.684 38.3466L120.915 40.3663L114.11 51.2539L110.849 51.2041L102.968 37.694Z" fill="#0502D3"/>
</svg>
