<svg width="59" height="25" viewBox="0 0 59 25" fill="none" xmlns="http://www.w3.org/2000/svg">
<rect width="57.5343" height="24.9659" transform="translate(0.822266)" fill="#FAFAFA"/>
<path d="M14.2752 24.9659C10.9889 24.9659 8.31885 22.3642 8.31885 19.1622C8.31885 15.9601 10.9889 13.3585 14.2752 13.3585C17.5615 13.3585 20.2315 15.9601 20.2315 19.1622C20.2315 22.3642 17.5615 24.9659 14.2752 24.9659ZM14.2752 14.9095C11.8618 14.9095 9.85928 16.8107 9.85928 19.2122C9.85928 21.6137 11.8105 23.5149 14.2752 23.5149C16.6885 23.5149 18.6911 21.6137 18.6911 19.2122C18.6911 16.8107 16.6885 14.9095 14.2752 14.9095Z" fill="#9D9D9D"/>
<path d="M14.2754 21.7139C12.7863 21.7139 11.554 20.5131 11.554 19.0622C11.554 17.6113 12.7863 16.4105 14.2754 16.4105C15.7645 16.4105 16.9968 17.6113 16.9968 19.0622C16.9968 20.5632 15.7645 21.7139 14.2754 21.7139ZM14.2754 17.9615C13.6592 17.9615 13.0944 18.4618 13.0944 19.1122C13.0944 19.7126 13.6079 20.263 14.2754 20.263C14.8916 20.263 15.4564 19.7626 15.4564 19.1122C15.4564 18.4618 14.8916 17.9615 14.2754 17.9615Z" fill="#9D9D9D"/>
<path d="M45.5975 24.9659C42.3112 24.9659 39.6411 22.3642 39.6411 19.1622C39.6411 15.9601 42.3112 13.3585 45.5975 13.3585C48.8837 13.3585 51.5538 16.0102 51.5538 19.2122C51.5538 22.4143 48.8837 24.9659 45.5975 24.9659ZM45.5975 14.9095C43.1841 14.9095 41.1815 16.8107 41.1815 19.2122C41.1815 21.6137 43.1328 23.5149 45.5975 23.5149C48.0622 23.5149 50.0134 21.6137 50.0134 19.2122C50.0134 16.8107 48.0622 14.9095 45.5975 14.9095Z" fill="#9D9D9D"/>
<path d="M45.5977 21.7139C44.1086 21.7139 42.8762 20.5131 42.8762 19.0622C42.8762 17.6113 44.1086 16.4105 45.5977 16.4105C47.0867 16.4105 48.3191 17.6113 48.3191 19.0622C48.3191 20.5632 47.0867 21.7139 45.5977 21.7139ZM45.5977 17.9615C44.9815 17.9615 44.4167 18.4618 44.4167 19.1122C44.4167 19.7126 44.9301 20.263 45.5977 20.263C46.2138 20.263 46.7787 19.7626 46.7787 19.1122C46.7787 18.4618 46.2652 17.9615 45.5977 17.9615Z" fill="#9D9D9D"/>
<path d="M57.8697 19.9127H52.889V18.4117H56.5346L56.7914 16.6106C56.9454 15.1596 55.9185 14.5092 55.9185 14.5092L55.7131 14.4092L55.559 14.109C54.6861 12.2078 52.6322 9.9063 50.2189 9.35595L39.4872 6.6042L32.4525 3.25207C30.45 2.15137 27.061 1.50095 23.364 1.50095H16.7401C14.5321 1.50095 11.2972 3.70235 9.39735 5.85372C8.67848 6.65423 7.85692 7.35467 6.93266 7.85499L3.69774 9.6061C2.87618 10.1064 2.3627 11.007 2.3627 11.9576V15.3097C2.3627 16.9107 4.7247 18.4117 6.57322 18.4117V19.9127H5.59761V19.8126C3.23561 19.4123 0.822266 17.5612 0.822266 15.3097V11.9576C0.822266 10.4566 1.64383 9.05575 2.97887 8.35531L6.21379 6.6042C6.984 6.20394 7.65153 5.60356 8.21635 4.95315C10.373 2.45156 13.9673 0 16.7401 0H23.364C25.2638 0 30.0392 0.200127 33.1714 1.95124L40.1033 5.25334L50.6296 7.95505C53.4538 8.60547 55.8158 11.1571 56.9454 13.4085C57.4076 13.8088 58.5372 14.9095 58.3318 16.8107L57.8697 19.9127Z" fill="#9D9D9D"/>
<path d="M22.9532 8.95557H22.4398V7.45462H22.9532V8.95557ZM20.3859 8.95557H18.3319V7.45462H20.3859V8.95557ZM16.278 8.95557H14.2241V7.45462H16.278V8.95557Z" fill="#9D9D9D"/>
<path d="M36.6119 8.95567H22.9534V7.45472H34.1472L30.7069 5.80367C29.0638 4.9031 26.3423 4.40278 23.4155 4.40278H18.3834C16.843 4.40278 14.5837 5.80367 13.0946 7.35465L13.1973 7.45472H14.2242V8.95567H12.5811L10.938 7.45472L11.4001 6.90437C13.1459 4.9031 16.0728 2.90182 18.3834 2.90182H23.4155C24.9559 2.90182 28.807 3.05192 31.3744 4.50284L37.3308 7.35465L36.6119 8.95567Z" fill="#9D9D9D"/>
<path d="M37.9982 18.4116H21.875V19.9126H37.9982V18.4116Z" fill="#9D9D9D"/>
<path d="M56.0723 14.5593L52.1185 13.7087C51.1943 13.5086 50.3727 12.9582 49.8079 12.2078L48.9863 11.007L50.27 10.1565L51.1429 11.3572C51.451 11.8075 51.9645 12.1577 52.5293 12.2578L56.4831 13.1083L56.0723 14.5593Z" fill="#9D9D9D"/>
</svg>
