<svg xmlns="http://www.w3.org/2000/svg" viewBox="0 0 56 24.97"><defs><style>.cls-1{fill:#0502d3;}</style></defs><g id="Capa_2" data-name="Capa 2"><g id="Capa_1-2" data-name="Capa 1"><path class="cls-1" d="M13.09,25a5.81,5.81,0,1,1,5.8-5.81A5.81,5.81,0,0,1,13.09,25Zm0-10.06a4.3,4.3,0,1,0,4.3,4.3A4.29,4.29,0,0,0,13.09,14.91Z"/><path class="cls-1" d="M13.09,21.71a2.65,2.65,0,1,1,2.65-2.65A2.64,2.64,0,0,1,13.09,21.71Zm0-3.75a1.15,1.15,0,1,0,1.15,1.15A1.15,1.15,0,0,0,13.09,18Z"/><path class="cls-1" d="M43.58,25a5.81,5.81,0,1,1,5.8-5.76A5.81,5.81,0,0,1,43.58,25Zm0-10.06a4.3,4.3,0,1,0,4.3,4.3A4.3,4.3,0,0,0,43.58,14.91Z"/><path class="cls-1" d="M43.58,21.71a2.65,2.65,0,1,1,2.65-2.65A2.64,2.64,0,0,1,43.58,21.71Zm0-3.75a1.15,1.15,0,1,0,1.15,1.15A1.13,1.13,0,0,0,43.58,18Z"/><path class="cls-1" d="M55.53,19.91H50.68v-1.5h3.55l.25-1.8a2.23,2.23,0,0,0-.85-2.1l-.2-.1-.15-.3c-.85-1.9-2.85-4.2-5.2-4.75L37.63,6.6,30.79,3.25c-1.95-1.1-5.25-1.75-8.85-1.75H15.49c-2.15,0-5.29,2.2-7.14,4.35a9.14,9.14,0,0,1-2.4,2L2.8,9.61A2.79,2.79,0,0,0,1.5,12v3.35c0,1.6,2.3,3.1,4.1,3.1v1.5H4.65v-.1C2.35,19.41,0,17.56,0,15.31V12a4.08,4.08,0,0,1,2.1-3.6L5.25,6.6A6.86,6.86,0,0,0,7.2,5C9.3,2.45,12.79,0,15.49,0h6.45c1.85,0,6.5.2,9.55,2l6.74,3.3L48.48,8c2.75.65,5.05,3.2,6.15,5.45A3.88,3.88,0,0,1,56,16.81Z"/><path class="cls-1" d="M21.54,9H21V7.45h.5ZM19,9H17V7.45h2ZM15,9H13V7.45h2Z"/><path class="cls-1" d="M34.84,9H21.54V7.45h10.9L29.09,5.8A15.55,15.55,0,0,0,22,4.4h-4.9c-1.5,0-3.7,1.4-5.14,2.95l.09.1h1V9H11.45L9.85,7.45l.45-.55c1.69-2,4.54-4,6.79-4H22c1.5,0,5.25.15,7.75,1.6l5.8,2.85Z"/><path class="cls-1" d="M36.18,18.41H20.49v1.5H36.18Z"/><path class="cls-1" d="M53.78,14.56l-3.85-.85a3.86,3.86,0,0,1-2.25-1.5l-.8-1.2,1.25-.85.85,1.2a2.12,2.12,0,0,0,1.35.9l3.85.85Z"/></g></g></svg>