<svg width="124" height="57" viewBox="0 0 124 57" fill="none" xmlns="http://www.w3.org/2000/svg">
<path d="M29.3283 55.598C22.3321 55.598 16.6477 49.9076 16.6477 42.9039C16.6477 35.9003 22.3321 30.2098 29.3283 30.2098C36.3245 30.2098 42.0089 35.9003 42.0089 42.9039C42.0089 49.9076 36.3245 55.598 29.3283 55.598ZM29.3283 33.6022C24.1905 33.6022 19.9272 37.7606 19.9272 43.0134C19.9272 48.2661 24.0812 52.4245 29.3283 52.4245C34.4661 52.4245 38.7294 48.2661 38.7294 43.0134C38.7294 37.7606 34.4661 33.6022 29.3283 33.6022Z" fill="#424242" stroke="#424242" stroke-width="0.816573"/>
<path d="M29.3277 48.4835C26.1575 48.4835 23.5339 45.8571 23.5339 42.6836C23.5339 39.5101 26.1575 36.8837 29.3277 36.8837C32.4978 36.8837 35.1214 39.5101 35.1214 42.6836C35.1214 45.9666 32.4978 48.4835 29.3277 48.4835ZM29.3277 40.2761C28.0159 40.2761 26.8134 41.3704 26.8134 42.7931C26.8134 44.1062 27.9066 45.31 29.3277 45.31C30.6394 45.31 31.8419 44.2157 31.8419 42.7931C31.8419 41.3704 30.6394 40.2761 29.3277 40.2761Z" fill="#424242" stroke="#424242" stroke-width="0.816573"/>
<path d="M96.0111 55.598C89.015 55.598 83.3306 49.9076 83.3306 42.9039C83.3306 35.9003 89.015 30.2098 96.0111 30.2098C103.007 30.2098 108.692 36.0097 108.692 43.0134C108.692 50.017 103.007 55.598 96.0111 55.598ZM96.0111 33.6022C90.8733 33.6022 86.61 37.7606 86.61 43.0134C86.61 48.2661 90.764 52.4245 96.0111 52.4245C101.258 52.4245 105.412 48.2661 105.412 43.0134C105.412 37.7606 101.258 33.6022 96.0111 33.6022Z" fill="#424242" stroke="#424242" stroke-width="0.816573"/>
<path d="M96.0105 48.4835C92.8404 48.4835 90.2168 45.8571 90.2168 42.6836C90.2168 39.5101 92.8404 36.8837 96.0105 36.8837C99.1807 36.8837 101.804 39.5101 101.804 42.6836C101.804 45.9666 99.1807 48.4835 96.0105 48.4835ZM96.0105 40.2761C94.6987 40.2761 93.4963 41.3704 93.4963 42.7931C93.4963 44.1062 94.5894 45.31 96.0105 45.31C97.3223 45.31 98.5248 44.2157 98.5248 42.7931C98.5248 41.3704 97.4316 40.2761 96.0105 40.2761Z" fill="#424242" stroke="#424242" stroke-width="0.816573"/>
<path d="M122.137 44.5452H111.534V41.2623H119.295L119.842 37.3227C120.17 34.1492 117.983 32.7266 117.983 32.7266L117.546 32.5077L117.218 31.8511C115.36 27.6927 110.987 22.6588 105.849 21.4551L83.0025 15.4363L68.0263 8.1044C63.763 5.6969 56.5482 4.27429 48.6775 4.27429H34.5758C29.8752 4.27429 22.9883 9.08929 18.9437 13.7949C17.4133 15.5458 15.6642 17.0778 13.6965 18.1721L6.80965 22.0023C5.06061 23.0966 3.96745 25.0663 3.96745 27.1455V34.4775C3.96745 37.9793 8.99596 41.2623 12.9313 41.2623V44.5452H10.8543V44.3263C5.82581 43.4509 0.687988 39.4019 0.687988 34.4775V27.1455C0.687988 23.8626 2.43704 20.7985 5.27924 19.2665L12.1661 15.4363C13.8058 14.5609 15.2269 13.2477 16.4294 11.8251C21.0207 6.35349 28.6727 0.991333 34.5758 0.991333H48.6775C52.7221 0.991333 62.8885 1.42906 69.5567 5.25918L84.3143 12.4817L106.724 18.391C112.736 19.8136 117.765 25.3946 120.17 30.3191C121.154 31.1945 123.559 33.602 123.121 37.7604L122.137 44.5452Z" fill="#424242" stroke="#424242" stroke-width="0.816573"/>
<path d="M47.8029 20.5823H46.7097V17.2994H47.8029V20.5823ZM42.3371 20.5823H37.9645V17.2994H42.3371V20.5823ZM33.5919 20.5823H29.2192V17.2994H33.5919V20.5823Z" fill="#424242" stroke="#424242" stroke-width="0.816573"/>
<path d="M76.8801 20.58H47.8022V17.297H71.633L64.3089 13.6858C60.8108 11.716 55.017 10.6217 48.7861 10.6217H38.0732C34.7937 10.6217 29.9838 13.6858 26.8137 17.0782L27.0323 17.297H29.2186V20.58H25.7205L22.2224 17.297L23.2063 16.0933C26.923 11.716 33.154 7.33875 38.0732 7.33875H48.7861C52.0655 7.33875 60.2642 7.66704 65.73 10.8406L78.4105 17.0782L76.8801 20.58Z" fill="#424242" stroke="#424242" stroke-width="0.816573"/>
<path d="M79.8321 41.2629H45.5071V44.5458H79.8321V41.2629Z" fill="#424242" stroke="#424242" stroke-width="0.816573"/>
<path d="M118.312 32.837L109.894 30.9766C107.927 30.5389 106.178 29.3352 104.975 27.6937L103.226 25.0673L105.959 23.207L107.817 25.8333C108.473 26.8182 109.566 27.5842 110.769 27.8031L119.186 29.6635L118.312 32.837Z" fill="#424242" stroke="#424242" stroke-width="0.816573"/>
</svg>
