<svg xmlns="http://www.w3.org/2000/svg" viewBox="0 0 56 33.82"><defs><style>.cls-1{fill:#0502d3;}</style></defs><g id="Capa_2" data-name="Capa 2"><g id="Capa_1-2" data-name="Capa 1"><path class="cls-1" d="M37.87,27.76H15.57v1.43h22.3Z"/><path class="cls-1" d="M43.09,33.82a5.49,5.49,0,1,1,5.49-5.49A5.51,5.51,0,0,1,43.09,33.82Zm0-9.56a4.07,4.07,0,1,0,4.06,4.07A4.07,4.07,0,0,0,43.09,24.26Z"/><path class="cls-1" d="M43.09,30.79a2.57,2.57,0,1,1,2.57-2.56A2.57,2.57,0,0,1,43.09,30.79Zm0-3.7a1.14,1.14,0,1,0,1.14,1.14A1.14,1.14,0,0,0,43.09,27.09Z"/><path class="cls-1" d="M10.81,33.82a5.49,5.49,0,1,1,5.49-5.49A5.5,5.5,0,0,1,10.81,33.82Zm0-9.56a4.07,4.07,0,1,0,4.06,4.07A4.08,4.08,0,0,0,10.81,24.26Z"/><path class="cls-1" d="M10.81,30.79a2.57,2.57,0,1,1,2.57-2.56A2.57,2.57,0,0,1,10.81,30.79Zm0-3.7A1.14,1.14,0,1,0,12,28.23,1.14,1.14,0,0,0,10.81,27.09Z"/><path class="cls-1" d="M6,29H2.67a2.67,2.67,0,1,1,0-5.34H5.18v1.43H2.67a1.24,1.24,0,0,0,0,2.48H6Z"/><path class="cls-1" d="M36.89,25.13H17.59L14,20.82H2.05V19.39H14.67l3.59,4.31H36.89Z"/><path class="cls-1" d="M52.06,29.19H48.32V27.76h3.74a2.51,2.51,0,0,0,2.51-2.51v-.12H49.81V23.7h4.75A1.44,1.44,0,0,1,56,25.13v.12A3.94,3.94,0,0,1,52.06,29.19Z"/><path class="cls-1" d="M2.83,24.56l-1.41-.14L3.2,7.19a3,3,0,0,1,3-2.69H31.67a3,3,0,0,1,2.5,1.33l5.1,8L50.1,15.73A5.12,5.12,0,0,1,54.28,20v.05l.33,4.31-1.42.11-.33-4.28a3.7,3.7,0,0,0-3-3.06l-11.45-2L33,6.61a1.59,1.59,0,0,0-1.31-.68H6.2A1.58,1.58,0,0,0,4.62,7.34Z"/><path class="cls-1" d="M30.65,9.35h-1.9V7.92h1.9Zm-3.8,0H24.94V7.92h1.91Z"/><path class="cls-1" d="M38.83,15.06H10.58a1.63,1.63,0,0,1-1.22-.54,1.65,1.65,0,0,1-.43-1.27l.35-3.82a1.66,1.66,0,0,1,1.66-1.51h14V9.34h-14a.24.24,0,0,0-.24.22l-.35,3.82a.22.22,0,0,0,.06.18.23.23,0,0,0,.17.07H38.83Z"/><path class="cls-1" d="M23,8.63H21.59v5.73H23Z"/><path class="cls-1" d="M23,16.54H21.59v5.72H23Z"/><path class="cls-1" d="M53.65,21.93H49.7a2.54,2.54,0,0,1-2.54-2.54v-.9h1.42v.9A1.12,1.12,0,0,0,49.7,20.5h3.95Z"/><path class="cls-1" d="M30.27,0H6V1.43H30.27Z"/><path class="cls-1" d="M9.38.47l-1,2.63,1.34.51,1-2.63Z"/><path class="cls-1" d="M26.87.46,25.54,1l1,2.64,1.33-.51Z"/></g></g></svg>