<svg width="80" height="66" viewBox="0 0 80 66" fill="none" xmlns="http://www.w3.org/2000/svg">
<path d="M77.5756 65.6059H2.35486C1.42621 65.6059 0.497559 64.6592 0.497559 63.7124V2.17365C0.497559 1.2269 1.42621 0.280151 2.35486 0.280151C3.28351 0.280151 4.21216 1.2269 4.21216 2.17365V60.8722H77.1113C78.0399 60.8722 78.9686 61.8189 78.9686 62.7657C79.4329 64.6592 78.5042 65.6059 77.5756 65.6059Z" fill="#0502D3"/>
<path fill-rule="evenodd" clip-rule="evenodd" d="M64.2771 3.69083C64.9929 3.62578 65.6902 3.94192 66.1129 4.52317L77.0005 19.4937C77.6637 20.4055 77.4621 21.6822 76.5503 22.3454C75.6385 23.0085 74.3617 22.8069 73.6986 21.8951L64.8224 9.69039L49.9709 40.6311C49.6844 41.228 49.1263 41.6488 48.4737 41.7601C47.8211 41.8714 47.1551 41.6594 46.687 41.1912L26.9877 21.492L13.2405 51.4859C12.7707 52.5109 11.5591 52.9609 10.5341 52.4912C9.5092 52.0214 9.05915 50.8097 9.52891 49.7848L24.4994 17.1219C24.7779 16.5143 25.3362 16.0815 25.9941 15.9632C26.652 15.845 27.3261 16.0563 27.7987 16.529L47.5368 36.267L62.6215 4.8405C62.9325 4.19255 63.5614 3.75589 64.2771 3.69083Z" fill="#0502D3"/>
</svg>
